<?xml version="1.0" standalone="no"?>
<!DOCTYPE svg PUBLIC "-//W3C//DTD SVG 20010904//EN"
 "http://www.w3.org/TR/2001/REC-SVG-20010904/DTD/svg10.dtd">
<svg version="1.0" xmlns="http://www.w3.org/2000/svg"
 width="800.000000pt" height="800.000000pt" viewBox="0 0 800.000000 800.000000"
 preserveAspectRatio="xMidYMid meet">

<g transform="translate(0.000000,800.000000) scale(0.100000,-0.100000)"
fill="#000000" stroke="none">
<path d="M7812 7825 c9 -10 21 -16 28 -13 7 2 -1 10 -16 17 -27 12 -28 11 -12
-4z"/>
<path d="M7941 7813 c7 -12 15 -20 18 -17 3 2 -3 12 -13 22 -17 16 -18 16 -5
-5z"/>
<path d="M7820 7740 c0 -5 5 -10 11 -10 5 0 7 5 4 10 -3 6 -8 10 -11 10 -2 0
-4 -4 -4 -10z"/>
<path d="M7711 7704 c0 -11 3 -14 6 -6 3 7 2 16 -1 19 -3 4 -6 -2 -5 -13z"/>
<path d="M7571 7608 c2 -2 17 -14 33 -28 l29 -25 -18 28 c-9 15 -24 27 -33 27
-8 0 -13 -1 -11 -2z"/>
<path d="M7671 7542 c-1 -8 -6 -10 -13 -6 -10 5 -10 4 -1 -6 15 -16 28 -8 20
12 -4 11 -6 11 -6 0z"/>
<path d="M7540 7506 c0 -9 5 -16 10 -16 6 0 10 4 10 9 0 6 -4 13 -10 16 -5 3
-10 -1 -10 -9z"/>
<path d="M7601 7504 c0 -11 3 -14 6 -6 3 7 2 16 -1 19 -3 4 -6 -2 -5 -13z"/>
<path d="M7480 7466 c0 -2 7 -9 15 -16 9 -7 15 -8 15 -2 0 5 -7 12 -15 16 -8
3 -15 4 -15 2z"/>
<path d="M7537 7423 c-4 -3 -7 -11 -7 -17 0 -6 5 -5 12 2 6 6 9 14 7 17 -3 3
-9 2 -12 -2z"/>
<path d="M5688 7321 c-28 -25 -33 -36 -32 -72 3 -103 142 -139 189 -49 54 105
-69 200 -157 121z m69 -11 c3 -11 13 -20 22 -20 45 0 57 -69 17 -95 -22 -15
-27 -15 -55 -1 -54 28 -69 92 -29 120 30 21 39 20 45 -4z"/>
<path d="M5720 7275 c0 -8 2 -15 4 -15 2 0 6 7 10 15 3 8 1 15 -4 15 -6 0 -10
-7 -10 -15z"/>
<path d="M5755 7250 c-10 -17 12 -37 25 -24 8 8 6 15 -4 23 -10 9 -16 9 -21 1z"/>
<path d="M7360 7286 c0 -2 8 -10 18 -17 15 -13 16 -12 3 4 -13 16 -21 21 -21
13z"/>
<path d="M7490 7260 c-9 -6 -10 -10 -3 -10 6 0 15 5 18 10 8 12 4 12 -15 0z"/>
<path d="M1767 7194 c-63 -63 -36 -148 56 -178 25 -8 81 17 101 45 27 38 21
96 -13 130 -40 40 -106 41 -144 3z m116 -115 c-9 -9 -19 -4 -42 21 -25 28 -32
31 -45 20 -17 -13 -19 -9 -16 30 4 44 12 43 63 -9 39 -38 49 -53 40 -62z"/>
<path d="M5505 7150 c-58 -59 -53 -81 6 -24 39 38 41 38 55 20 21 -29 18 -36
-28 -83 -42 -42 -42 -62 0 -23 27 26 34 25 62 -5 12 -13 27 -22 32 -19 5 4 -2
18 -16 33 -31 32 -32 45 -8 63 10 7 22 19 26 27 7 10 4 12 -12 7 -15 -5 -26 1
-44 24 l-24 30 -49 -50z"/>
<path d="M1636 7052 c-3 -5 17 -30 43 -56 27 -26 51 -44 55 -38 3 5 -4 18 -15
28 -11 10 -17 24 -15 31 3 7 -2 13 -11 13 -9 0 -24 7 -34 16 -9 8 -20 11 -23
6z"/>
<path d="M5400 7052 c0 -4 15 -23 34 -41 43 -41 61 -23 20 20 -26 28 -54 38
-54 21z"/>
<path d="M2177 7032 c-4 -5 16 -30 42 -56 27 -26 51 -44 55 -38 3 5 -4 18 -15
28 -11 10 -17 24 -14 32 3 8 0 12 -7 9 -7 -2 -23 4 -34 15 -12 11 -24 15 -27
10z"/>
<path d="M3275 7030 c-3 -6 1 -7 10 -4 9 4 26 -4 42 -20 14 -14 34 -26 43 -26
12 0 20 -11 24 -32 7 -34 -7 -51 -35 -43 -9 3 -22 -1 -29 -10 -7 -8 -18 -15
-26 -15 -15 0 -20 15 -30 83 -8 57 -28 58 -32 2 -5 -56 4 -78 37 -98 45 -26
88 -22 122 12 38 39 39 87 3 130 -22 27 -32 31 -74 31 -27 0 -52 -4 -55 -10z"/>
<path d="M5352 6994 c-14 -10 -22 -25 -22 -44 0 -24 5 -31 27 -36 14 -4 33 -2
42 3 23 15 27 64 5 80 -22 16 -25 16 -52 -3z m46 -37 c4 -20 -25 -34 -40 -19
-15 15 -1 44 19 40 10 -2 19 -11 21 -21z"/>
<path d="M1570 6981 c0 -5 7 -14 15 -21 8 -7 15 -28 15 -46 0 -42 18 -45 27
-4 4 20 11 30 24 30 10 0 21 5 24 10 4 6 -6 10 -23 10 -16 0 -35 7 -42 15 -14
16 -40 20 -40 6z"/>
<path d="M5480 6964 c0 -20 -22 -41 -56 -54 l-27 -11 28 -29 29 -30 43 42 c48
47 51 58 25 81 -23 21 -42 22 -42 1z m7 -61 c-14 -15 -29 -24 -33 -20 -4 4 5
18 21 32 36 34 47 22 12 -12z"/>
<path d="M2116 6961 c-3 -5 1 -14 9 -21 8 -7 15 -28 15 -46 0 -19 5 -34 10
-34 6 0 10 14 10 30 0 25 4 30 24 30 14 0 28 5 31 10 4 6 -6 10 -22 10 -16 0
-38 7 -50 15 -12 8 -24 11 -27 6z"/>
<path d="M1726 6910 c-20 -24 -30 -29 -51 -24 -29 7 -33 -6 -7 -29 17 -16 21
-14 67 33 32 33 44 50 33 50 -9 0 -28 -14 -42 -30z"/>
<path d="M1500 6904 c0 -24 -39 -64 -61 -64 -27 0 -30 -13 -7 -37 26 -27 35
-28 60 -6 10 9 18 12 18 6 0 -5 -9 -18 -20 -28 -11 -10 -20 -25 -20 -34 0 -9
27 11 65 49 35 35 62 68 58 73 -3 5 -18 -4 -34 -19 -30 -28 -41 -24 -14 6 13
15 12 19 -15 45 -27 26 -30 27 -30 9z m20 -42 c0 -14 -49 -56 -57 -49 -3 4 4
18 17 32 24 25 40 32 40 17z"/>
<path d="M2268 6883 c-31 -31 -39 -35 -52 -24 -13 11 -16 11 -16 -3 0 -36 32
-29 78 18 26 25 42 46 37 46 -6 0 -27 -17 -47 -37z"/>
<path d="M3155 6880 c35 -36 38 -43 27 -60 -7 -11 -10 -20 -6 -20 6 0 46 20
53 27 8 7 -83 93 -98 93 -9 0 0 -15 24 -40z"/>
<path d="M6882 6899 c-11 -27 -37 -53 -66 -63 -19 -6 -18 -8 7 -34 21 -20 29
-24 39 -14 7 7 19 12 27 12 10 0 6 -9 -13 -29 -15 -16 -24 -31 -19 -34 5 -4
38 22 72 57 35 35 59 66 53 69 -5 4 -20 -5 -32 -18 -31 -33 -47 -32 -25 1 17
26 16 27 -9 52 l-25 26 -9 -25z m3 -59 c-16 -16 -33 -30 -39 -30 -5 0 3 14 19
30 16 17 33 30 39 30 5 0 -3 -13 -19 -30z"/>
<path d="M5220 6865 c-50 -51 -39 -61 15 -14 44 39 46 26 3 -18 -27 -27 -29
-34 -18 -48 12 -14 19 -11 61 31 27 26 46 50 44 53 -3 2 -23 -13 -45 -34 -47
-46 -54 -36 -9 11 20 20 29 39 26 48 -10 26 -30 18 -77 -29z"/>
<path d="M960 6889 c0 -20 66 -83 74 -71 3 5 -1 15 -10 22 -8 7 -13 19 -10 27
3 8 -2 13 -12 13 -10 0 -23 5 -30 12 -9 9 -12 9 -12 -3z"/>
<path d="M2040 6889 c0 -19 67 -85 77 -76 4 4 1 13 -5 19 -7 7 -12 20 -12 31
0 11 -5 17 -12 14 -7 -2 -21 2 -30 11 -16 13 -18 13 -18 1z"/>
<path d="M3670 6893 c0 -5 29 -38 65 -73 36 -35 65 -59 65 -52 0 7 -21 34 -48
60 -60 59 -82 77 -82 65z"/>
<path d="M4210 6892 c0 -14 129 -136 137 -129 4 4 -22 37 -57 72 -61 61 -80
75 -80 57z"/>
<path d="M2543 6848 c-36 -38 -40 -45 -29 -60 19 -26 27 -23 76 27 24 25 40
45 34 45 -6 0 -23 -13 -39 -30 -27 -28 -55 -40 -55 -23 0 4 17 24 37 45 20 21
33 38 27 38 -5 0 -28 -19 -51 -42z"/>
<path d="M4710 6850 c-23 -23 -39 -44 -36 -48 4 -3 21 9 39 26 48 46 58 39 12
-8 -35 -36 -37 -42 -24 -55 13 -13 20 -10 59 30 24 25 40 45 34 45 -6 0 -23
-13 -39 -30 -16 -16 -33 -30 -39 -30 -5 0 8 18 29 40 36 37 38 41 23 56 -15
15 -19 13 -58 -26z"/>
<path d="M5765 6840 c-27 -27 -45 -50 -39 -50 6 0 26 16 44 35 27 28 40 35 58
30 21 -5 22 -4 12 15 -6 11 -14 20 -18 20 -4 0 -30 -22 -57 -50z"/>
<path d="M6405 6820 c39 -39 72 -65 74 -59 2 6 -9 22 -23 36 -15 14 -25 31
-22 39 3 8 -1 14 -10 14 -9 0 -27 9 -41 20 -56 44 -44 16 22 -50z"/>
<path d="M7390 6845 l-44 -45 21 -22 c21 -20 23 -21 41 -5 10 9 22 17 25 17
14 0 6 -28 -13 -45 -11 -10 -20 -23 -20 -29 0 -6 29 18 65 54 35 35 62 66 60
69 -3 2 -15 -5 -28 -17 -38 -36 -64 -27 -30 10 15 17 15 19 -2 38 -10 11 -21
20 -24 20 -4 0 -27 -20 -51 -45z m60 3 c0 -16 -41 -58 -57 -58 -20 0 -16 21 9
47 23 25 48 31 48 11z"/>
<path d="M3072 6864 c-25 -18 -29 -59 -6 -68 36 -14 78 40 54 69 -16 19 -20
19 -48 -1z m38 -23 c0 -5 -6 -14 -14 -20 -16 -13 -32 2 -21 19 8 12 35 13 35
1z"/>
<path d="M3640 6861 c0 -6 5 -13 10 -16 16 -10 0 -26 -19 -20 -11 3 -25 -3
-36 -15 -21 -23 -13 -39 10 -20 22 18 44 -3 51 -51 4 -22 11 -39 16 -39 10 0
6 45 -7 88 -6 17 -3 22 10 22 13 0 16 -6 12 -21 -4 -16 -2 -19 10 -15 10 4 26
-3 40 -15 12 -13 26 -19 30 -15 7 7 -105 126 -119 126 -4 0 -8 -4 -8 -9z"/>
<path d="M4180 6861 c0 -6 5 -13 10 -16 18 -11 11 -28 -9 -22 -12 3 -28 -4
-42 -19 -12 -13 -17 -24 -11 -24 6 0 14 5 17 10 18 30 55 -14 55 -65 0 -14 5
-25 10 -25 6 0 10 15 10 34 0 19 -4 38 -10 41 -17 11 -11 37 8 33 10 -2 16
-11 14 -22 -2 -11 1 -15 8 -11 6 4 22 -3 36 -16 13 -12 27 -19 31 -15 7 7
-105 126 -119 126 -4 0 -8 -4 -8 -9z"/>
<path d="M5292 6807 c-29 -29 -52 -59 -52 -67 0 -8 27 12 60 45 33 33 60 63
60 67 0 18 -18 5 -68 -45z"/>
<path d="M5850 6835 c-14 -15 -33 -24 -45 -23 -15 2 -19 -2 -17 -15 2 -11 -4
-28 -14 -38 -9 -11 -15 -21 -13 -24 3 -2 32 22 64 55 32 33 57 62 54 65 -3 3
-16 -6 -29 -20z"/>
<path d="M1987 6830 c-15 -12 -27 -29 -27 -37 0 -13 5 -12 25 7 31 30 46 18
17 -13 l-22 -24 20 -18 c20 -18 21 -18 55 15 19 19 35 38 35 44 0 5 -15 -5
-34 -23 -24 -24 -36 -29 -41 -20 -5 7 1 19 15 31 23 19 23 19 4 39 -20 20 -20
20 -47 -1z"/>
<path d="M2590 6795 c-29 -30 -51 -58 -47 -62 8 -7 117 95 117 109 0 18 -18 5
-70 -47z"/>
<path d="M3121 6806 c-25 -25 -42 -49 -38 -52 4 -4 13 -2 20 5 8 6 23 8 32 4
15 -5 17 -3 11 12 -4 11 0 25 10 36 9 10 14 23 12 29 -2 6 -23 -10 -47 -34z"/>
<path d="M895 6820 c-10 -11 -15 -28 -12 -40 7 -26 -17 -38 -38 -20 -9 7 -18
10 -22 6 -9 -9 68 -87 79 -80 5 3 2 14 -7 24 -22 24 -10 43 21 36 16 -4 30 0
44 14 25 25 25 42 2 63 -24 22 -45 21 -67 -3z m55 -16 c11 -12 10 -18 -3 -32
-15 -15 -19 -15 -32 -1 -17 17 -11 49 10 49 7 0 18 -7 25 -16z"/>
<path d="M4775 6780 c-32 -33 -57 -62 -54 -64 3 -3 32 21 64 54 32 33 57 62
54 64 -3 3 -32 -21 -64 -54z"/>
<path d="M6280 6820 c-6 -11 -7 -20 -2 -20 10 0 32 21 32 32 0 16 -19 8 -30
-12z"/>
<path d="M6310 6805 c-18 -19 -31 -37 -29 -40 3 -2 21 11 39 30 18 19 31 37
29 40 -3 2 -21 -11 -39 -30z"/>
<path d="M1574 6801 c-16 -10 -35 -25 -42 -34 -16 -19 -12 -59 6 -65 16 -5 92
70 92 91 0 23 -25 27 -56 8z m26 -23 c0 -16 -31 -48 -47 -48 -19 0 -16 10 9
37 24 25 38 30 38 11z"/>
<path d="M5842 6777 c-53 -54 -55 -74 -2 -22 51 50 66 37 16 -14 -33 -34 -35
-39 -21 -51 14 -11 22 -7 60 30 25 24 42 46 40 49 -3 2 -20 -10 -38 -27 -47
-45 -59 -40 -14 6 36 37 37 39 19 55 -17 16 -21 14 -60 -26z"/>
<path d="M6939 6781 c-66 -66 -34 -111 36 -50 27 24 35 39 33 57 -5 39 -25 37
-69 -7z m51 2 c0 -10 -42 -53 -52 -53 -17 0 -7 29 14 44 24 17 38 20 38 9z"/>
<path d="M1007 6772 c-20 -21 -37 -40 -37 -43 0 -3 9 -16 20 -29 l20 -24 40
39 c22 22 40 44 40 50 0 11 -31 45 -41 45 -3 0 -22 -17 -42 -38z m56 1 c8 -7
-41 -63 -55 -63 -14 0 -9 33 9 52 17 19 35 23 46 11z"/>
<path d="M2617 6772 c-47 -48 -49 -67 -2 -22 45 43 59 31 16 -14 -32 -33 -35
-56 -7 -56 6 0 32 20 56 45 24 25 40 45 34 45 -6 0 -25 -16 -44 -35 -18 -19
-36 -32 -39 -30 -2 3 10 21 29 39 20 22 30 41 27 50 -10 25 -30 19 -70 -22z"/>
<path d="M3220 6775 c-23 -24 -40 -33 -52 -29 -23 7 -25 -24 -2 -33 10 -4 31
9 60 38 24 24 44 47 44 51 0 16 -17 7 -50 -27z"/>
<path d="M5313 6775 c-36 -36 -41 -67 -12 -73 23 -4 89 61 89 87 0 33 -37 26
-77 -14z m57 7 c0 -14 -49 -56 -57 -49 -3 4 4 18 17 32 24 25 40 32 40 17z"/>
<path d="M2088 6757 c-48 -53 -40 -62 11 -13 33 32 39 35 51 22 7 -9 17 -13
22 -10 11 7 -20 44 -36 43 -6 0 -28 -19 -48 -42z"/>
<path d="M6325 6776 c-21 -31 -11 -50 21 -42 28 7 30 0 8 -25 -9 -10 -11 -19
-5 -23 5 -3 25 13 45 36 38 44 49 73 18 45 -25 -23 -34 -21 -30 6 5 33 -36 36
-57 3z m45 -1 c0 -16 -27 -32 -37 -21 -7 7 16 36 28 36 5 0 9 -7 9 -15z"/>
<path d="M7482 6757 c-54 -55 -55 -74 -2 -22 36 35 43 38 60 27 16 -10 20 -10
20 1 0 13 -19 37 -30 37 -3 0 -25 -19 -48 -43z"/>
<path d="M4802 6757 c-34 -35 -43 -77 -16 -77 23 0 84 64 84 89 0 32 -31 26
-68 -12z m48 1 c0 -14 -40 -58 -52 -58 -15 0 -8 30 12 50 22 22 40 26 40 8z"/>
<path d="M5130 6781 c0 -5 7 -14 15 -21 8 -7 15 -17 15 -23 0 -5 -8 -3 -18 6
-19 18 -42 23 -42 9 0 -10 113 -122 123 -122 16 0 6 28 -18 50 -14 13 -25 28
-25 34 0 5 17 -7 38 -27 21 -20 41 -37 45 -37 18 0 2 25 -53 80 -56 56 -80 72
-80 51z"/>
<path d="M6746 6782 c-7 -11 71 -88 80 -79 4 4 1 14 -7 23 -8 10 -13 25 -11
35 2 14 -1 17 -13 13 -8 -4 -22 -1 -29 5 -8 7 -17 8 -20 3z"/>
<path d="M1322 6737 l-42 -42 31 -33 c33 -35 39 -38 56 -21 13 13 43 5 43 -11
0 -6 -9 -18 -20 -27 -20 -17 -27 -43 -12 -43 13 0 122 114 122 128 0 18 -8 15
-38 -13 -23 -22 -28 -23 -41 -10 -13 13 -12 17 4 35 34 38 5 34 -35 -5 -33
-32 -42 -36 -55 -25 -22 19 -19 30 22 72 23 24 31 38 22 38 -8 0 -34 -19 -57
-43z"/>
<path d="M4067 6763 c-10 -9 113 -133 132 -133 10 0 3 12 -17 33 -23 24 -31
39 -26 52 6 15 4 17 -11 11 -13 -4 -27 1 -45 19 -14 14 -30 22 -33 18z"/>
<path d="M5670 6763 c0 -5 5 -14 11 -20 17 -17 0 -35 -25 -29 -16 4 -30 -2
-49 -22 l-27 -28 33 -32 33 -32 29 30 c22 23 26 32 16 43 -9 11 -8 17 4 27 13
11 19 10 35 -5 15 -14 20 -15 20 -4 -1 22 -80 93 -80 72z m-6 -96 c16 -26 -13
-41 -36 -20 -14 12 -15 19 -6 30 13 16 28 13 42 -10z"/>
<path d="M7295 6750 c5 -15 0 -22 -17 -30 -28 -12 -68 -45 -68 -57 0 -5 14
-22 30 -38 l30 -29 30 29 c16 15 27 32 24 37 -3 5 0 16 7 24 10 13 14 12 30
-2 11 -10 22 -14 26 -10 7 7 -76 96 -90 96 -4 0 -5 -9 -2 -20z m33 -42 c-6
-18 -28 -21 -28 -4 0 9 7 16 16 16 9 0 14 -5 12 -12z m-38 -34 c11 -12 10 -18
-3 -32 -16 -15 -18 -15 -33 0 -19 18 -12 48 9 48 8 0 20 -7 27 -16z"/>
<path d="M2440 6752 c0 -14 126 -133 133 -125 4 3 -7 21 -24 39 -20 21 -29 38
-25 49 4 12 1 15 -12 11 -12 -4 -26 1 -37 14 -18 20 -35 26 -35 12z"/>
<path d="M3490 6719 c-40 -46 -53 -73 -21 -45 23 21 28 8 11 -25 -8 -13 -7
-19 0 -19 6 0 16 14 22 30 7 21 22 36 46 45 40 17 39 31 -2 16 -25 -10 -37 1
-16 14 12 7 14 25 3 24 -5 0 -24 -18 -43 -40z"/>
<path d="M4572 6717 c-54 -55 -55 -74 -2 -22 36 35 43 38 60 27 16 -10 20 -10
20 1 0 13 -19 37 -30 37 -3 0 -25 -19 -48 -43z"/>
<path d="M6172 6717 c-41 -42 -60 -76 -24 -44 25 23 36 9 17 -20 -9 -13 -11
-23 -5 -23 6 0 18 16 26 35 9 22 21 35 33 35 10 0 24 7 31 15 15 18 7 19 -22
4 -27 -15 -35 -3 -13 21 35 39 -1 19 -43 -23z"/>
<path d="M1937 6719 c-10 -6 -30 -8 -45 -4 -27 5 -27 5 -27 -45 0 -43 2 -48
13 -33 6 9 12 25 12 34 0 11 11 20 30 24 16 4 33 11 36 16 9 15 1 19 -19 8z"/>
<path d="M3008 6693 l-37 -37 -24 22 c-33 31 -52 29 -31 -3 25 -39 52 -50 73
-31 13 12 20 13 29 4 17 -17 15 -29 -10 -55 -12 -13 -18 -26 -14 -30 9 -9 126
107 126 126 0 10 -10 5 -30 -14 -28 -27 -31 -28 -47 -12 -16 15 -16 18 0 35 9
10 17 22 17 25 0 15 -17 5 -52 -30z"/>
<path d="M5062 6707 l-22 -23 48 -47 48 -47 24 25 c27 28 20 47 -8 22 -14 -13
-21 -14 -30 -5 -9 9 -8 16 5 30 22 25 8 36 -17 13 -18 -17 -20 -17 -26 -1 -4
10 -2 22 5 29 6 6 11 15 11 19 0 15 -16 8 -38 -15z"/>
<path d="M767 6692 c-28 -30 -37 -53 -12 -32 21 17 35 3 35 -36 0 -21 4 -33
10 -29 6 3 10 17 10 31 0 17 5 24 19 24 11 0 23 5 26 10 4 6 -6 10 -24 10 -35
0 -48 15 -31 35 22 27 -6 16 -33 -13z"/>
<path d="M3547 6662 c-57 -58 -82 -99 -29 -49 34 32 44 27 29 -14 -21 -56 33
-61 78 -7 41 49 28 88 -23 65 -33 -15 -39 -1 -12 28 13 14 21 27 19 30 -3 2
-31 -21 -62 -53z m83 -30 c0 -18 -33 -52 -51 -52 -23 0 -24 8 -3 38 14 21 54
31 54 14z"/>
<path d="M4660 6694 c-18 -18 -31 -23 -48 -19 -20 5 -23 3 -17 -15 4 -14 1
-28 -11 -41 -9 -10 -15 -21 -13 -24 3 -2 34 25 69 60 36 36 60 65 54 65 -6 0
-21 -11 -34 -26z"/>
<path d="M6225 6660 c-32 -33 -56 -62 -54 -65 3 -3 14 4 24 15 10 11 24 20 32
20 16 0 16 -5 2 -31 -13 -25 5 -51 29 -42 32 11 72 57 72 81 0 23 -2 24 -41
18 -44 -7 -45 -2 -6 42 11 12 16 22 11 22 -5 0 -36 -27 -69 -60z m85 -32 c0
-19 -31 -48 -52 -48 -24 0 -23 9 4 37 23 25 48 31 48 11z"/>
<path d="M6680 6713 c0 -5 7 -17 15 -27 8 -11 15 -33 15 -49 0 -16 4 -26 10
-22 6 3 10 17 10 29 0 18 7 25 31 30 37 7 29 26 -11 26 -16 0 -32 5 -35 10 -7
12 -35 14 -35 3z"/>
<path d="M1935 6650 c-32 -32 -56 -63 -52 -66 4 -4 18 3 32 16 l25 23 24 -22
c16 -15 26 -19 31 -11 3 6 -4 19 -17 29 l-23 19 24 25 c13 14 22 30 19 37 -2
6 -30 -17 -63 -50z"/>
<path d="M2383 6683 l-22 -25 46 -45 46 -45 30 30 29 30 -41 41 c-22 22 -47
41 -53 40 -7 0 -23 -12 -35 -26z m71 -22 c17 -18 26 -36 23 -45 -9 -24 -30
-19 -62 14 -23 24 -26 32 -15 45 17 21 22 19 54 -14z"/>
<path d="M4005 6690 c-10 -11 -14 -20 -8 -20 5 0 18 9 28 20 10 11 14 20 8 20
-5 0 -18 -9 -28 -20z"/>
<path d="M4030 6675 c-18 -19 -30 -38 -27 -42 8 -7 77 55 77 69 0 16 -17 7
-50 -27z"/>
<path d="M6818 6684 c-37 -19 -64 -70 -47 -90 6 -8 17 -14 25 -14 21 0 84 60
84 81 0 28 -30 40 -62 23z m32 -29 c0 -17 -35 -55 -50 -55 -16 0 -12 32 7 52
20 22 43 24 43 3z"/>
<path d="M5722 6637 c-54 -55 -55 -74 -2 -22 36 35 43 38 61 27 12 -8 23 -11
27 -8 6 6 -27 46 -37 46 -4 0 -26 -19 -49 -43z"/>
<path d="M870 6640 c-33 -36 -37 -52 -16 -69 17 -15 40 -5 74 32 28 30 25 61
-6 65 -15 2 -32 -7 -52 -28z m60 -5 c0 -17 -40 -57 -54 -52 -18 6 -16 23 4 45
24 25 50 29 50 7z"/>
<path d="M4056 6651 c-26 -29 -17 -65 17 -69 34 -4 57 13 57 42 0 45 -44 61
-74 27z m52 -29 c3 -18 -1 -22 -22 -22 -19 0 -26 5 -26 18 0 39 43 43 48 4z"/>
<path d="M4662 6645 c-36 -30 -48 -60 -32 -79 15 -19 43 -10 75 24 29 31 31
73 4 78 -9 2 -30 -9 -47 -23z m48 -12 c0 -23 -29 -53 -52 -53 -25 0 -23 16 7
45 28 29 45 32 45 8z"/>
<path d="M7380 6615 c-30 -31 -35 -33 -50 -20 -9 8 -20 12 -23 8 -9 -8 22 -43
38 -43 12 0 85 71 85 83 0 15 -18 5 -50 -28z"/>
<path d="M140 6528 c-135 -68 -110 -266 38 -308 29 -8 49 -6 91 7 47 14 58 23
88 70 l34 54 187 -3 188 -3 -4 28 c-3 17 3 36 14 50 10 12 12 16 4 10 -10 -10
-67 -13 -207 -13 l-193 0 -11 27 c-15 40 -38 63 -84 84 -53 25 -92 24 -145 -3z
m140 -66 c0 -10 -8 -28 -17 -42 -9 -13 -22 -46 -28 -74 -10 -44 -15 -51 -36
-51 -20 0 -24 4 -21 28 1 15 11 47 22 72 l19 45 -28 0 c-27 0 -47 21 -34 34 4
3 33 6 65 6 49 0 58 -3 58 -18z"/>
<path d="M1330 6483 c-8 -3 -29 -19 -46 -35 l-31 -29 -189 3 -189 3 0 -40 0
-40 188 3 188 3 33 -36 c29 -30 40 -35 79 -35 39 0 50 5 78 35 l33 35 187 0
c182 0 187 1 182 20 -3 11 3 32 12 47 10 16 12 22 4 16 -9 -10 -65 -13 -205
-13 -161 0 -193 2 -198 15 -13 35 -85 63 -126 48z m77 -55 c43 -40 18 -108
-39 -108 -62 0 -91 67 -48 110 26 26 58 25 87 -2z"/>
<path d="M2944 6481 c-12 -5 -30 -21 -42 -35 l-20 -26 -189 0 c-137 0 -193 3
-202 13 -8 6 -6 0 4 -16 9 -15 15 -36 12 -47 -5 -19 0 -20 180 -20 l186 0 34
-35 c29 -30 41 -35 80 -35 39 0 50 5 79 35 l33 36 188 -3 188 -3 0 38 0 37
-193 0 -192 0 -28 30 c-29 33 -81 46 -118 31z m86 -51 c42 -42 14 -110 -46
-110 -58 0 -83 63 -42 107 26 28 61 30 88 3z"/>
<path d="M5083 6475 c-17 -7 -36 -23 -43 -34 -10 -20 -19 -21 -193 -21 -132 0
-187 3 -197 13 -8 6 -6 2 4 -10 11 -14 17 -33 14 -50 l-4 -28 176 3 175 3 35
-36 c28 -29 41 -35 77 -35 35 0 50 6 82 35 l39 36 184 -3 184 -3 -4 28 c-3 17
3 36 14 50 10 12 12 16 4 10 -10 -10 -67 -13 -206 -13 l-193 0 -19 25 c-19 24
-60 45 -85 45 -7 -1 -26 -7 -44 -15z m78 -36 c41 -21 44 -86 5 -111 -24 -16
-75 -8 -90 14 -22 32 -20 55 9 83 26 27 46 31 76 14z"/>
<path d="M6715 6480 c-11 -4 -31 -20 -44 -34 l-24 -26 -191 0 -191 0 0 -37 0
-38 188 3 188 3 33 -36 c29 -30 40 -35 79 -35 39 0 50 5 78 35 l33 35 189 0
c185 0 188 0 182 20 -4 13 0 32 10 48 10 15 12 21 4 15 -9 -10 -65 -13 -206
-13 -185 0 -193 1 -203 21 -11 20 -67 50 -92 48 -7 0 -22 -4 -33 -9z m80 -55
c29 -28 31 -51 9 -83 -15 -22 -66 -30 -90 -14 -23 15 -34 50 -25 76 19 49 69
59 106 21z"/>
<path d="M808 6443 c6 -2 18 -2 25 0 6 3 1 5 -13 5 -14 0 -19 -2 -12 -5z"/>
<path d="M1893 6443 c9 -2 23 -2 30 0 6 3 -1 5 -18 5 -16 0 -22 -2 -12 -5z"/>
<path d="M2438 6443 c6 -2 18 -2 25 0 6 3 1 5 -13 5 -14 0 -19 -2 -12 -5z"/>
<path d="M3518 6443 c6 -2 18 -2 25 0 6 3 1 5 -13 5 -14 0 -19 -2 -12 -5z"/>
<path d="M4058 6443 c6 -2 18 -2 25 0 6 3 1 5 -13 5 -14 0 -19 -2 -12 -5z"/>
<path d="M4598 6443 c6 -2 18 -2 25 0 6 3 1 5 -13 5 -14 0 -19 -2 -12 -5z"/>
<path d="M5658 6443 c6 -2 18 -2 25 0 6 3 1 5 -13 5 -14 0 -19 -2 -12 -5z"/>
<path d="M6198 6443 c6 -2 18 -2 25 0 6 3 1 5 -13 5 -14 0 -19 -2 -12 -5z"/>
<path d="M7270 6446 c0 -2 13 -6 29 -8 17 -2 28 -1 25 4 -5 8 -54 12 -54 4z"/>
<path d="M1950 6428 c6 -7 10 -27 10 -45 l0 -32 219 -3 218 -3 -10 22 c-7 17
-6 29 8 50 10 15 12 22 4 16 -16 -16 -428 -19 -447 -3 -9 7 -9 7 -2 -2z"/>
<path d="M3574 6423 c11 -14 17 -33 14 -50 l-4 -28 211 3 211 3 1 34 1 35
-212 0 c-155 0 -216 3 -226 13 -8 6 -6 2 4 -10z"/>
<path d="M4115 6418 c10 -16 15 -37 12 -50 l-6 -23 217 0 218 0 -1 37 0 38
-215 0 c-159 0 -220 3 -229 13 -8 6 -6 0 4 -15z"/>
<path d="M6165 6430 c-4 -6 -89 -10 -223 -10 l-217 0 0 -38 -1 -37 217 3 c210
3 217 3 212 22 -3 11 2 31 11 45 9 14 14 25 12 25 -3 0 -8 -4 -11 -10z"/>
<path d="M7350 6405 c4 -11 4 -29 0 -40 -7 -19 -4 -20 56 -17 l63 4 81 -82 80
-82 0 -501 0 -501 -79 -78 -78 -79 -161 3 -161 3 6 -27 c3 -16 1 -34 -5 -40
-8 -10 26 -12 170 -10 l180 3 94 95 94 95 0 539 0 539 -92 93 -93 93 -81 5
c-78 5 -81 4 -74 -15z"/>
<path d="M5190 6063 c0 -4 17 -24 37 -45 29 -30 34 -41 25 -50 -20 -20 -14
-27 13 -15 14 7 25 16 25 22 0 5 -19 29 -42 52 -40 41 -58 52 -58 36z"/>
<path d="M5124 5996 c-13 -21 -14 -29 -4 -41 17 -20 33 -19 54 4 23 25 17 55
-11 59 -14 2 -27 -5 -39 -22z m49 -10 c3 -12 -30 -32 -39 -24 -11 12 5 40 21
36 9 -2 17 -7 18 -12z"/>
<path d="M5187 5945 c-21 -25 -34 -45 -28 -45 5 0 13 5 16 10 5 8 11 8 19 1
15 -13 27 -4 20 14 -3 7 2 25 11 39 28 42 2 30 -38 -19z"/>
<path d="M5280 5915 c-25 -26 -39 -33 -54 -29 -19 6 -20 5 -6 -12 8 -10 15
-20 15 -21 1 -2 23 20 50 47 27 28 45 50 39 50 -6 0 -25 -16 -44 -35z"/>
<path d="M3760 5920 c0 -20 117 -136 127 -127 4 4 -23 38 -60 75 -37 37 -67
60 -67 52z"/>
<path d="M5010 5875 c-54 -55 -45 -74 10 -20 33 33 41 36 55 25 8 -7 18 -11
20 -8 6 5 -24 48 -33 48 -5 0 -28 -20 -52 -45z"/>
<path d="M3700 5845 c-19 -19 -29 -35 -24 -35 6 0 15 5 21 11 15 15 53 -36 53
-72 0 -16 5 -29 10 -29 6 0 10 14 10 30 0 25 4 30 24 30 14 0 28 5 31 10 3 6
-4 10 -15 10 -27 0 -80 30 -80 45 0 6 5 16 12 23 7 7 8 12 2 12 -6 0 -25 -16
-44 -35z"/>
<path d="M5095 5850 c-22 -23 -31 -27 -42 -18 -17 14 -31 2 -15 -14 9 -9 7
-17 -10 -35 -12 -13 -18 -26 -15 -29 6 -6 80 64 116 109 23 29 -3 19 -34 -13z"/>
<path d="M5089 5788 c-58 -61 -12 -107 49 -49 20 18 32 39 32 55 0 38 -43 35
-81 -6z m61 -3 c0 -17 -40 -57 -54 -52 -19 6 -17 26 3 46 24 24 51 27 51 6z"/>
<path d="M4220 5765 c-54 -55 -45 -73 11 -19 39 38 41 38 55 20 21 -29 18 -36
-28 -83 -43 -43 -34 -62 9 -21 l24 22 25 -27 c24 -26 44 -35 44 -20 0 4 -12
20 -27 35 l-27 28 27 28 c27 28 28 45 1 35 -8 -3 -23 6 -35 21 -11 14 -24 26
-28 26 -4 0 -27 -20 -51 -45z"/>
<path d="M2320 5786 c0 -8 7 -17 16 -20 10 -4 13 -13 9 -27 -5 -16 -3 -20 6
-17 8 3 22 1 32 -4 35 -18 31 2 -8 42 -41 42 -55 49 -55 26z"/>
<path d="M3620 5794 c0 -4 14 -22 31 -41 22 -26 29 -42 25 -58 -5 -21 -4 -22
19 -12 14 7 25 15 25 19 0 7 -89 98 -96 98 -2 0 -4 -3 -4 -6z"/>
<path d="M4917 5792 c-4 -5 2 -17 13 -27 11 -10 17 -22 14 -27 -3 -5 -15 -2
-25 8 -11 9 -22 14 -26 10 -9 -9 98 -116 116 -116 10 0 3 13 -19 35 -44 45
-30 59 15 15 19 -18 38 -30 42 -26 4 4 -23 36 -59 72 -36 37 -68 62 -71 56z"/>
<path d="M2256 5731 c-11 -12 -16 -24 -12 -28 9 -9 39 22 34 37 -2 7 -10 4
-22 -9z"/>
<path d="M3556 5731 c-22 -24 -17 -55 10 -59 25 -4 57 30 52 55 -5 25 -41 28
-62 4z m44 -16 c0 -16 -27 -32 -37 -22 -3 4 -3 13 0 22 8 20 37 20 37 0z"/>
<path d="M2281 5708 c-17 -17 -31 -36 -31 -42 0 -6 5 -5 12 2 19 19 28 14 28
-18 0 -16 5 -30 10 -30 6 0 10 11 10 25 0 18 7 26 25 31 33 8 32 24 -1 24 -21
0 -24 4 -19 20 9 27 2 25 -34 -12z"/>
<path d="M4852 5707 l-22 -23 45 -44 c44 -43 45 -43 65 -25 11 10 20 25 20 33
0 12 -4 12 -20 -3 -20 -18 -21 -18 -52 12 -27 27 -30 34 -18 48 21 25 5 27
-18 2z"/>
<path d="M3617 5682 c-20 -21 -37 -40 -37 -43 0 -4 14 -6 30 -5 24 1 30 5 26
18 -2 10 5 29 16 43 30 38 7 30 -35 -13z"/>
<path d="M2369 5671 c-35 -35 -37 -74 -4 -79 26 -4 88 59 83 84 -6 32 -45 29
-79 -5z m56 -1 c7 -11 -38 -60 -55 -60 -17 0 -11 22 12 47 24 25 34 28 43 13z"/>
<path d="M5455 5681 c-39 -17 -60 -51 -60 -98 0 -38 5 -49 33 -74 98 -87 232
44 145 141 -30 33 -82 46 -118 31z m22 -59 c-25 -27 -21 -35 8 -16 23 15 27
15 50 0 29 -19 32 -51 8 -78 -20 -22 -63 -24 -63 -3 0 8 -4 15 -9 15 -5 0 -19
14 -32 31 l-21 30 28 30 c18 19 31 26 38 19 6 -6 4 -16 -7 -28z"/>
<path d="M5486 5565 c-9 -25 -8 -27 17 -23 12 2 22 10 22 18 0 21 -31 24 -39
5z"/>
<path d="M3710 5645 c-23 -24 -40 -33 -52 -29 -21 6 -24 -9 -5 -24 10 -9 25 0
62 38 27 28 45 50 39 50 -6 0 -25 -16 -44 -35z"/>
<path d="M4126 5672 c-3 -5 15 -28 40 -52 l45 -42 -27 -29 c-15 -16 -37 -29
-48 -29 -18 0 -17 -4 12 -32 l32 -32 40 39 c22 21 40 44 40 50 0 16 -127 138
-134 127z m80 -160 c-36 -36 -46 -19 -10 19 16 17 30 25 33 18 2 -6 -8 -23
-23 -37z"/>
<path d="M4780 5649 c0 -19 114 -133 129 -128 6 2 -20 35 -59 74 -38 38 -70
63 -70 54z"/>
<path d="M7380 5655 c0 -6 4 -17 10 -25 6 -9 5 -19 -3 -29 -10 -12 -8 -13 12
-6 15 4 26 3 31 -5 4 -7 13 -11 19 -9 7 3 -6 22 -29 44 -22 21 -40 35 -40 30z"/>
<path d="M2137 5602 c-26 -27 -44 -51 -40 -55 4 -4 26 11 49 34 l42 41 18 -26
c17 -27 17 -27 -26 -71 -24 -25 -41 -48 -37 -52 4 -4 20 5 34 20 l27 27 27
-26 c38 -37 59 -21 23 17 l-28 29 22 23 c25 27 29 42 7 34 -9 -4 -22 5 -35 23
-12 17 -25 30 -29 30 -4 0 -28 -22 -54 -48z"/>
<path d="M6720 5642 c0 -14 89 -96 96 -89 4 4 -2 17 -13 30 -11 12 -18 28 -16
35 3 7 -1 10 -10 7 -7 -3 -20 1 -27 10 -13 16 -30 20 -30 7z"/>
<path d="M3436 5601 c-34 -35 -33 -74 3 -79 32 -5 81 43 81 80 0 24 -4 28 -28
28 -18 0 -38 -10 -56 -29z m64 -8 c0 -23 -29 -53 -52 -53 -23 0 -24 27 -1 52
20 23 53 24 53 1z"/>
<path d="M4062 5608 c-22 -22 -14 -67 13 -80 21 -9 28 -8 45 7 36 32 20 85
-25 85 -12 0 -26 -5 -33 -12z m56 -36 c3 -16 -2 -22 -17 -22 -24 0 -35 15 -27
36 9 23 40 13 44 -14z"/>
<path d="M7317 5582 c-33 -35 -34 -41 -2 -34 23 4 25 1 25 -32 0 -22 4 -35 10
-31 6 3 10 17 10 31 0 19 5 24 25 24 14 0 25 5 25 10 0 6 -13 10 -29 10 -35 0
-48 15 -31 35 22 27 -6 16 -33 -13z"/>
<path d="M3517 5532 c-58 -59 -73 -82 -38 -60 17 10 23 9 41 -7 27 -25 35 -14
10 15 -18 21 -19 25 -6 39 14 13 17 13 34 -2 30 -27 49 -21 22 8 -19 20 -21
27 -10 40 7 8 11 18 8 20 -2 2 -30 -21 -61 -53z"/>
<path d="M4717 5583 c-18 -17 -5 -62 24 -87 46 -39 89 -30 89 19 0 44 -86 95
-113 68z m73 -33 c25 -25 27 -60 3 -60 -23 0 -63 39 -63 62 0 24 35 23 60 -2z"/>
<path d="M6660 5573 c0 -5 7 -17 15 -27 8 -11 15 -30 15 -43 0 -32 18 -29 22
5 2 19 9 28 26 30 35 5 26 22 -12 22 -19 0 -38 5 -41 10 -7 12 -25 13 -25 3z"/>
<path d="M7434 5542 c-34 -27 -48 -60 -33 -78 17 -21 33 -17 68 15 38 36 43
81 9 81 -13 0 -33 -8 -44 -18z m46 -22 c0 -26 -47 -57 -62 -42 -9 9 -6 18 12
37 28 30 50 32 50 5z"/>
<path d="M3990 5533 c0 -3 7 -15 17 -25 22 -25 8 -36 -17 -13 -11 10 -23 15
-27 11 -4 -3 22 -36 57 -71 36 -36 67 -60 69 -54 2 6 -9 24 -25 40 -39 41 -21
49 21 9 64 -62 50 -20 -15 45 -60 60 -80 75 -80 58z"/>
<path d="M5287 5533 c-3 -5 25 -40 62 -77 38 -38 71 -64 74 -59 4 6 -7 23 -23
38 -17 16 -30 37 -30 48 0 11 -5 17 -12 14 -7 -2 -25 7 -39 20 -15 14 -29 21
-32 16z"/>
<path d="M6817 5502 c-33 -32 -39 -35 -57 -24 -16 10 -20 10 -20 -2 0 -7 7
-19 16 -27 13 -11 22 -6 62 34 25 25 44 49 41 51 -3 3 -22 -11 -42 -32z"/>
<path d="M750 5506 c0 -8 5 -18 11 -21 6 -4 8 -13 5 -21 -4 -10 0 -14 12 -12
10 2 17 -3 16 -13 -1 -11 8 -16 29 -17 l30 -1 -49 50 c-26 27 -50 49 -51 49
-2 0 -3 -6 -3 -14z"/>
<path d="M3345 5502 c4 -13 2 -29 -5 -37 -14 -17 0 -21 16 -5 7 7 19 4 37 -10
50 -40 28 2 -27 50 l-28 25 7 -23z"/>
<path d="M4640 5509 c0 -19 87 -105 97 -96 4 4 -16 31 -45 60 -31 30 -52 45
-52 36z"/>
<path d="M1362 5467 c-46 -47 -50 -58 -27 -77 13 -10 19 -9 35 5 29 26 38 9
11 -19 -13 -14 -22 -29 -19 -36 2 -6 30 17 63 50 32 32 56 63 52 66 -4 4 -18
-3 -32 -16 -29 -28 -46 -19 -20 10 32 36 10 31 -25 -5 -31 -32 -60 -45 -60
-28 0 4 17 24 37 45 20 21 34 40 32 43 -3 2 -24 -15 -47 -38z"/>
<path d="M2040 5498 c0 -7 9 -19 20 -26 21 -13 27 -32 10 -32 -6 0 -22 -12
-35 -27 -22 -27 -24 -27 -42 -10 -21 18 -43 23 -43 9 0 -12 44 -52 57 -52 6 0
27 19 47 43 28 34 37 40 48 29 10 -10 5 -19 -26 -48 l-38 -36 26 -26 26 -26
45 44 45 44 -46 47 c-26 26 -43 52 -40 58 4 6 1 11 -8 11 -8 0 -21 3 -30 6
-10 4 -16 1 -16 -8z m105 -108 c7 -12 -34 -60 -52 -60 -23 0 -25 22 -2 46 24
26 44 31 54 14z"/>
<path d="M2690 5502 c0 -4 16 -23 35 -42 25 -24 35 -29 35 -18 0 9 -5 20 -11
23 -6 4 -8 14 -5 22 4 11 2 13 -9 10 -8 -4 -17 -2 -20 3 -7 12 -25 13 -25 2z"/>
<path d="M5895 5460 c-27 -28 -44 -50 -37 -50 6 0 27 17 46 37 34 37 34 38 55
19 17 -15 21 -16 21 -4 0 8 -8 22 -18 31 -17 16 -21 14 -67 -33z"/>
<path d="M6580 5502 c0 -14 129 -136 137 -129 3 4 -8 22 -26 41 -17 18 -31 39
-29 47 2 8 -4 13 -13 11 -9 -1 -24 7 -34 18 -18 20 -35 26 -35 12z"/>
<path d="M7230 5502 c0 -14 129 -136 137 -129 3 4 -8 23 -26 41 -18 19 -30 39
-27 45 4 7 -1 11 -12 11 -10 0 -27 9 -37 20 -18 20 -35 26 -35 12z"/>
<path d="M5232 5457 c-31 -32 -34 -60 -4 -35 20 17 52 -23 52 -64 0 -19 4 -28
13 -25 6 2 11 16 10 31 -2 23 2 26 28 26 40 0 37 16 -5 24 -37 7 -74 40 -57
51 13 7 15 25 3 25 -4 0 -23 -15 -40 -33z"/>
<path d="M2632 5437 l-32 -33 23 -22 c13 -12 28 -22 34 -22 13 0 76 70 69 77
-2 3 -18 -10 -35 -29 -27 -30 -31 -32 -46 -17 -14 14 -14 18 6 43 31 39 18 41
-19 3z"/>
<path d="M3927 5452 c-10 -10 -17 -21 -17 -25 0 -9 82 -87 91 -87 12 0 43 50
35 57 -3 3 -14 -1 -24 -10 -17 -16 -20 -15 -47 13 -22 23 -26 33 -17 42 7 7
12 16 12 20 0 14 -16 9 -33 -10z"/>
<path d="M4580 5435 c-19 -19 -29 -35 -24 -35 6 0 19 9 29 20 10 11 22 20 27
20 15 0 9 -23 -12 -45 l-20 -22 20 -18 c20 -18 21 -18 55 15 19 19 35 38 35
44 0 5 -13 -2 -28 -17 -45 -43 -72 -34 -30 10 22 23 22 24 2 43 -20 20 -20 20
-54 -15z"/>
<path d="M680 5445 c-20 -24 -6 -28 15 -5 10 11 13 20 8 20 -6 0 -16 -7 -23
-15z"/>
<path d="M5980 5435 c-16 -17 -27 -22 -34 -15 -17 17 -29 11 -23 -12 4 -14 0
-29 -10 -40 -9 -10 -13 -21 -9 -25 7 -7 116 95 116 109 0 15 -17 8 -40 -17z"/>
<path d="M6527 5432 l-27 -28 45 -44 45 -44 30 29 30 29 -42 43 c-23 24 -45
43 -48 43 -4 0 -18 -13 -33 -28z m67 -31 c27 -28 28 -51 2 -51 -19 0 -69 57
-62 69 12 18 31 12 60 -18z"/>
<path d="M7180 5435 c-26 -27 -21 -47 5 -21 9 9 20 16 25 16 16 0 30 -37 30
-79 0 -23 5 -41 10 -41 18 0 11 84 -10 118 -24 39 -30 39 -60 7z"/>
<path d="M695 5420 c-16 -16 -26 -32 -24 -35 3 -2 21 11 39 30 19 19 29 35 24
35 -6 0 -23 -13 -39 -30z"/>
<path d="M3276 5441 c-3 -5 1 -14 9 -21 8 -7 15 -28 15 -46 0 -19 5 -34 10
-34 6 0 10 14 10 30 0 25 4 30 25 30 14 0 25 5 25 10 0 6 -10 10 -23 10 -12 0
-32 7 -44 15 -12 8 -24 11 -27 6z"/>
<path d="M2732 5387 l-42 -43 25 -24 25 -24 40 39 c22 22 40 43 40 47 0 9 -32
48 -40 48 -3 0 -25 -19 -48 -43z m63 2 c8 -12 -33 -59 -51 -59 -24 0 -26 22
-3 46 24 26 44 31 54 13z"/>
<path d="M3391 5386 l-42 -42 21 -24 21 -24 44 44 c25 24 45 47 45 50 0 3 -11
13 -24 22 -23 16 -24 16 -65 -26z m59 2 c0 -16 -41 -58 -57 -58 -20 0 -16 21
9 47 23 25 48 31 48 11z"/>
<path d="M714 5395 c-13 -19 -14 -28 -5 -39 15 -18 49 -9 62 16 25 47 -28 68
-57 23z m46 -10 c0 -19 -20 -29 -32 -17 -8 8 -7 16 2 26 14 17 30 12 30 -9z"/>
<path d="M5980 5375 c-54 -55 -45 -74 10 -20 33 33 41 36 55 25 23 -19 31 -3
10 20 -10 11 -21 20 -24 20 -4 0 -27 -20 -51 -45z"/>
<path d="M1440 5381 c-36 -36 -41 -81 -9 -81 27 0 92 64 87 87 -6 30 -45 27
-78 -6z m54 0 c8 -12 -32 -61 -50 -61 -22 0 -17 37 8 54 26 18 35 20 42 7z"/>
<path d="M837 5363 c-31 -28 -41 -32 -53 -22 -11 9 -14 8 -14 -4 0 -8 6 -19
13 -25 10 -9 24 -1 57 33 53 54 50 68 -3 18z"/>
<path d="M3850 5393 c0 -3 7 -15 16 -25 14 -14 14 -20 4 -33 -17 -20 -5 -32
15 -15 13 11 19 10 35 -5 41 -37 32 -3 -10 40 -41 42 -60 54 -60 38z"/>
<path d="M4730 5365 c-23 -24 -40 -33 -52 -29 -22 7 -24 -9 -3 -26 14 -11 23
-7 60 30 25 24 45 48 45 52 0 16 -17 7 -50 -27z"/>
<path d="M5112 5347 c-55 -56 -55 -84 1 -29 40 40 44 41 60 25 16 -16 14 -20
-30 -65 -50 -51 -53 -81 -3 -33 28 27 31 27 48 12 10 -10 22 -14 25 -10 4 3 0
15 -10 25 -15 17 -15 20 13 50 27 28 27 30 7 25 -16 -3 -26 2 -38 19 -8 13
-19 24 -23 24 -4 0 -27 -19 -50 -43z"/>
<path d="M2556 5372 c-3 -5 3 -17 14 -27 11 -10 16 -24 13 -33 -4 -10 -2 -13
6 -8 6 4 19 2 27 -5 8 -6 18 -9 21 -5 4 4 -11 25 -34 47 -22 23 -43 37 -47 31z"/>
<path d="M1250 5362 c0 -13 79 -86 86 -79 4 4 1 13 -6 22 -7 8 -10 22 -6 30 4
11 -1 15 -19 15 -13 0 -27 5 -30 10 -7 12 -25 13 -25 2z"/>
<path d="M1900 5362 c0 -13 69 -76 76 -69 4 4 2 13 -5 20 -6 8 -8 22 -5 32 6
14 3 16 -14 11 -11 -4 -23 -2 -27 4 -7 12 -25 14 -25 2z"/>
<path d="M3192 5347 l-22 -24 20 -18 c19 -17 21 -17 40 0 11 10 20 23 20 28 0
6 -9 2 -19 -7 -23 -20 -40 -4 -20 20 20 25 4 25 -19 1z"/>
<path d="M4519 5341 c25 -34 18 -43 -26 -35 -65 12 -84 -37 -33 -87 22 -22 37
-29 57 -27 26 3 28 6 28 50 0 25 3 49 6 53 4 3 20 -8 37 -25 17 -16 36 -30 43
-30 8 0 -16 29 -51 65 -68 68 -95 85 -61 36z m-3 -78 c28 -30 27 -47 -2 -51
-25 -4 -69 42 -61 62 9 24 35 19 63 -11z"/>
<path d="M5761 5326 c-25 -25 -42 -49 -38 -52 4 -4 13 -1 22 6 18 15 21 -1 5
-31 -8 -13 -7 -19 0 -19 6 0 17 15 25 34 9 20 26 38 45 46 16 7 30 17 30 22 0
5 -9 4 -19 -2 -30 -16 -46 -13 -31 5 6 8 10 19 8 25 -2 6 -23 -10 -47 -34z"/>
<path d="M7090 5362 c0 -14 129 -136 137 -129 3 4 -8 23 -26 41 -21 22 -30 39
-25 47 5 9 2 11 -8 6 -10 -3 -25 4 -39 19 -22 24 -39 31 -39 16z"/>
<path d="M6428 5344 c-30 -16 -58 -61 -51 -81 3 -7 16 -13 29 -13 26 0 32 -18
12 -38 -6 -6 -9 -14 -6 -17 3 -3 33 22 66 57 34 34 59 64 57 67 -3 2 -12 -2
-20 -9 -18 -15 -31 -6 -37 24 -4 26 -17 28 -50 10z m32 -19 c0 -17 -35 -55
-50 -55 -19 0 -10 38 13 53 28 20 37 21 37 2z m20 -44 c0 -13 -26 -32 -33 -24
-8 7 11 33 24 33 5 0 9 -4 9 -9z"/>
<path d="M3786 5321 c-20 -21 -24 -31 -16 -36 8 -5 16 -1 22 9 23 41 51 6 37
-47 -10 -37 11 -32 23 5 9 27 -12 98 -30 98 -4 0 -21 -13 -36 -29z"/>
<path d="M607 5302 c-33 -32 -40 -35 -57 -24 -31 19 -35 14 -10 -13 22 -24 25
-24 42 -8 14 13 21 14 30 5 9 -9 5 -19 -17 -42 -16 -16 -24 -30 -19 -30 12 0
124 112 124 125 0 5 -14 -4 -30 -20 -23 -22 -33 -26 -42 -17 -9 9 -7 16 7 32
33 36 10 30 -28 -8z"/>
<path d="M1845 5300 c-30 -32 -28 -55 3 -27 29 26 34 21 30 -28 -4 -50 7 -59
23 -18 11 30 4 77 -15 92 -9 8 -20 3 -41 -19z"/>
<path d="M1190 5305 c-20 -24 -6 -28 15 -5 10 11 13 20 8 20 -6 0 -16 -7 -23
-15z"/>
<path d="M1212 5284 c-19 -19 -31 -38 -28 -42 7 -6 76 57 76 70 0 16 -16 7
-48 -28z"/>
<path d="M2490 5305 c-20 -24 -6 -28 15 -5 10 11 13 20 8 20 -6 0 -16 -7 -23
-15z"/>
<path d="M3223 5263 c-55 -57 -74 -97 -24 -49 30 29 54 20 25 -9 -9 -9 -14
-19 -10 -22 3 -4 23 10 44 30 29 29 41 34 50 25 6 -6 15 -8 19 -5 4 4 -3 17
-15 29 -19 19 -22 20 -28 5 -6 -17 -34 -24 -34 -9 0 5 9 17 20 27 20 18 26 36
13 34 -5 0 -32 -25 -60 -56z"/>
<path d="M5810 5265 c-29 -30 -51 -58 -47 -61 4 -4 18 3 32 16 29 27 42 22 25
-10 -28 -52 20 -67 69 -21 53 49 37 101 -21 70 -32 -17 -34 -1 -3 31 19 20 24
30 14 30 -8 0 -39 -25 -69 -55z m90 -28 c0 -8 -11 -24 -25 -37 -35 -32 -54
-14 -25 23 23 29 50 36 50 14z"/>
<path d="M2507 5279 c-28 -32 -30 -52 -2 -29 12 10 16 9 21 -4 3 -9 4 -23 0
-31 -3 -8 -1 -15 4 -15 5 0 12 11 16 25 4 15 16 28 30 31 36 9 29 25 -7 17
-29 -5 -31 -4 -24 16 9 30 -6 26 -38 -10z"/>
<path d="M3135 5290 c-15 -16 -15 -22 -5 -35 17 -21 43 -19 58 5 13 22 3 27
-16 8 -17 -17 -28 0 -14 22 16 26 0 26 -23 0z"/>
<path d="M7040 5289 c0 -6 11 -24 25 -41 14 -17 25 -42 25 -59 0 -16 5 -29 10
-29 6 0 10 16 10 35 0 32 2 35 31 35 17 0 28 4 24 10 -3 6 -19 10 -34 10 -16
0 -37 10 -51 25 -25 27 -40 32 -40 14z"/>
<path d="M1242 5274 c-28 -19 -30 -64 -4 -64 25 0 55 34 50 56 -4 24 -19 27
-46 8z m38 -8 c0 -18 -15 -36 -31 -36 -17 0 -18 3 -9 20 9 17 40 29 40 16z"/>
<path d="M1310 5235 c-53 -54 -49 -70 5 -20 30 29 40 33 51 24 23 -19 30 0 8
21 -20 20 -20 20 -64 -25z"/>
<path d="M1950 5251 c-33 -32 -38 -62 -16 -80 28 -23 100 39 94 81 -5 35 -42
35 -78 -1z m60 -12 c0 -14 -38 -49 -55 -49 -24 0 -18 27 11 49 25 20 44 20 44
0z"/>
<path d="M2622 5265 c-26 -19 -51 -65 -45 -82 14 -39 106 21 101 66 -4 31 -25
37 -56 16z m38 -22 c0 -20 -28 -53 -46 -53 -25 0 -25 20 0 45 29 29 46 32 46
8z"/>
<path d="M3945 5250 c-22 -23 -36 -29 -52 -25 -28 7 -30 -6 -5 -28 17 -16 21
-14 60 26 23 24 42 46 42 50 0 15 -17 6 -45 -23z"/>
<path d="M5235 5240 c-30 -31 -42 -37 -52 -28 -22 18 -28 0 -8 -22 19 -21 19
-20 67 27 26 26 48 51 48 55 0 17 -17 7 -55 -32z"/>
<path d="M6493 5235 c-38 -38 -41 -68 -7 -73 29 -4 84 49 84 82 0 38 -34 34
-77 -9z m57 0 c0 -17 -39 -55 -57 -55 -20 0 -15 18 12 45 27 28 45 32 45 10z"/>
<path d="M687 5213 c-31 -31 -39 -35 -47 -23 -5 8 -12 11 -16 7 -8 -8 14 -37
28 -37 9 0 50 38 77 73 25 31 -4 18 -42 -20z"/>
<path d="M1827 5065 l-35 -36 -239 3 -239 3 1 -37 0 -38 240 0 239 0 34 -32
c27 -27 41 -33 78 -33 39 0 50 5 75 33 l29 32 242 0 243 0 0 38 1 37 -243 -3
-242 -3 -16 24 c-19 30 -56 47 -100 47 -26 0 -42 -9 -68 -35z m127 -27 c22
-31 20 -64 -4 -88 -58 -58 -149 31 -93 92 23 26 78 24 97 -4z"/>
<path d="M3774 5065 l-33 -35 -237 0 c-212 0 -240 2 -258 18 -17 15 -17 13 3
-13 14 -19 20 -37 16 -52 l-5 -23 242 0 243 0 28 -29 c15 -17 37 -33 48 -36
37 -12 88 4 111 35 l22 30 243 0 243 0 0 24 c0 13 2 30 5 38 4 11 -38 12 -236
10 l-241 -3 -39 36 c-31 28 -47 35 -80 35 -35 0 -47 -6 -75 -35z m126 -25 c26
-26 25 -58 -2 -87 -40 -43 -108 -18 -108 39 0 62 67 91 110 48z"/>
<path d="M5073 5065 l-36 -35 -237 0 c-143 0 -241 4 -248 10 -9 7 -9 7 -2 -2
6 -7 10 -27 10 -45 l0 -33 241 0 241 0 27 -29 c50 -53 112 -53 162 0 l27 29
241 0 241 0 0 33 c0 18 4 38 10 45 7 9 7 9 -2 2 -7 -6 -105 -10 -248 -10
l-237 0 -36 35 c-29 28 -44 35 -77 35 -33 0 -48 -7 -77 -35z m121 -20 c48 -49
6 -127 -60 -111 -74 19 -60 126 16 126 16 0 35 -7 44 -15z"/>
<path d="M649 5037 c16 -18 22 -34 19 -51 l-5 -26 267 0 268 0 0 38 1 37 -261
-3 c-230 -2 -264 -1 -287 14 l-26 17 24 -26z"/>
<path d="M2597 5036 c16 -19 21 -36 17 -52 l-6 -24 269 0 c201 0 273 -3 283
-12 8 -7 7 -4 -3 8 -23 28 -21 53 6 83 l22 24 -25 -16 c-21 -15 -58 -17 -280
-17 -226 0 -258 2 -280 17 l-25 18 22 -29z"/>
<path d="M555 5040 c-3 -5 -45 -10 -93 -10 l-87 0 -98 -98 -97 -97 0 -595 0
-595 99 -99 100 -100 97 2 c54 1 106 -3 118 -9 17 -10 19 -9 9 2 -18 19 -16
59 4 83 10 12 11 15 3 9 -9 -9 -48 -13 -112 -13 l-98 0 -75 76 -75 75 0 567 0
567 78 78 77 77 73 0 c69 0 73 1 67 20 -4 13 0 31 9 45 9 14 14 25 12 25 -3 0
-8 -4 -11 -10z"/>
<path d="M6394 5040 c-7 -7 -103 -10 -275 -8 l-265 3 4 -28 c2 -15 0 -33 -6
-40 -8 -9 46 -11 264 -9 l274 3 0 25 c0 14 5 34 10 45 12 21 9 24 -6 9z"/>
<path d="M7044 5040 c-7 -7 -103 -10 -275 -8 l-264 3 0 -37 0 -38 268 0 267 0
0 33 c0 18 5 38 12 45 7 7 10 12 7 12 -3 0 -10 -5 -15 -10z"/>
<path d="M6530 4522 c0 -14 129 -136 137 -129 4 4 -22 37 -57 72 -61 61 -80
75 -80 57z"/>
<path d="M6475 4450 c-30 -31 -25 -42 7 -14 14 14 20 15 33 4 14 -12 14 -15
-5 -35 l-20 -21 29 -28 28 -27 32 39 c41 53 40 64 -3 23 -45 -44 -81 -25 -39
21 16 18 15 20 -8 44 l-25 24 -29 -30z"/>
<path d="M1843 4403 c-19 -39 -16 -49 7 -28 19 17 21 17 40 0 32 -29 36 -8 5
25 -16 17 -31 30 -34 30 -3 0 -12 -12 -18 -27z"/>
<path d="M6396 4376 c3 -8 12 -17 21 -20 11 -4 13 -14 8 -37 -7 -29 -6 -30 15
-17 18 11 23 11 33 -2 21 -26 57 -53 57 -43 0 11 -121 133 -132 133 -4 0 -5
-6 -2 -14z"/>
<path d="M4400 4335 c-54 -55 -45 -74 10 -20 l40 39 22 -22 22 -22 -44 -45
c-45 -46 -50 -77 -5 -35 l25 24 28 -27 c37 -36 50 -22 15 15 l-27 28 27 28
c32 33 34 46 8 37 -13 -4 -25 2 -39 20 -11 14 -24 25 -29 25 -5 0 -29 -20 -53
-45z"/>
<path d="M1844 4335 c-19 -29 -31 -31 -56 -8 -10 9 -21 13 -25 10 -8 -8 36
-57 51 -57 10 0 66 63 66 74 0 15 -21 3 -36 -19z"/>
<path d="M1887 4322 c-50 -51 -48 -76 3 -27 47 46 54 36 8 -12 -30 -31 -31
-34 -15 -50 16 -16 20 -15 62 27 25 24 45 49 45 54 0 6 -17 -7 -38 -27 -48
-47 -67 -49 -22 -2 28 28 32 39 24 52 -17 28 -28 25 -67 -15z"/>
<path d="M6335 4310 c-21 -22 -24 -30 -13 -30 9 0 21 7 28 15 7 8 16 15 20 15
12 0 30 -50 30 -85 0 -19 5 -35 10 -35 28 0 -5 138 -35 147 -6 2 -24 -10 -40
-27z"/>
<path d="M1715 4300 c-7 -12 110 -140 127 -140 22 0 2 32 -56 89 -43 42 -66
59 -71 51z"/>
<path d="M1660 4230 l-33 -31 46 -47 47 -47 32 33 33 32 -46 46 -46 45 -33
-31z m61 -36 c27 -26 29 -54 5 -54 -19 0 -69 57 -62 69 11 17 28 13 57 -15z"/>
<path d="M4310 4244 c0 -15 59 -69 67 -61 3 4 4 8 2 10 -2 1 -19 15 -37 31
-17 17 -32 25 -32 20z"/>
<path d="M5610 4242 c0 -14 126 -133 133 -125 4 4 -21 35 -55 70 -59 60 -78
73 -78 55z"/>
<path d="M6285 4200 c36 -37 63 -49 35 -15 -7 8 -9 22 -6 31 5 13 2 15 -14 11
-11 -3 -23 -1 -26 4 -3 5 -10 9 -17 9 -6 0 6 -18 28 -40z"/>
<path d="M5557 4172 c-34 -36 -35 -53 -1 -21 25 24 26 24 40 5 8 -11 14 -39
14 -63 0 -24 5 -43 10 -43 18 0 11 84 -10 118 -11 17 -21 32 -23 32 -2 0 -15
-13 -30 -28z"/>
<path d="M4238 4165 c-15 -33 -1 -59 34 -63 31 -4 50 19 46 55 -2 23 -8 29
-35 31 -27 3 -35 -1 -45 -23z m65 -7 c7 -21 -4 -38 -23 -38 -23 0 -34 16 -26
35 7 18 43 20 49 3z"/>
<path d="M6195 4163 c5 -10 10 -33 13 -50 5 -40 20 -43 24 -5 2 21 9 28 31 30
15 2 27 8 27 13 0 6 -8 8 -17 5 -10 -3 -31 1 -47 9 -36 19 -40 19 -31 -2z"/>
<path d="M4386 4159 c8 -14 -47 -71 -63 -65 -17 7 -16 -5 3 -32 21 -31 34 -28
79 18 l39 40 -24 25 c-23 25 -47 35 -34 14z m34 -36 c0 -10 -52 -63 -62 -63
-15 0 -8 21 17 45 23 24 45 33 45 18z"/>
<path d="M1580 4141 c5 -11 14 -23 20 -26 12 -8 1 -36 -25 -57 -41 -35 -71
-11 -34 28 16 17 18 24 8 24 -8 0 -25 -12 -38 -26 l-24 -25 49 -50 49 -50 33
36 c18 19 30 41 26 47 -5 7 -14 2 -26 -15 -20 -27 -42 -35 -52 -19 -7 12 44
72 61 72 7 0 26 -14 42 -32 18 -20 32 -28 40 -23 9 5 -6 26 -50 71 -63 64
-101 85 -79 45z"/>
<path d="M2857 4142 c-46 -50 -40 -124 14 -156 68 -40 149 8 149 89 0 13 -12
37 -26 54 -22 27 -33 31 -73 31 -33 0 -53 -6 -64 -18z m61 -24 c13 -13 31 -23
40 -23 9 0 17 -7 17 -15 0 -8 4 -21 9 -28 13 -21 -19 -49 -37 -33 -12 9 -16 8
-21 -4 -3 -8 -14 -15 -25 -15 -15 0 -23 10 -30 38 -26 91 -5 128 47 80z"/>
<path d="M6302 4117 l-42 -43 23 -22 23 -22 42 43 42 43 -23 22 -23 22 -42
-43z m58 0 c0 -8 -11 -24 -25 -37 -19 -18 -28 -21 -37 -12 -9 9 -6 18 12 37
25 27 50 33 50 12z"/>
<path d="M4170 4113 c0 -4 10 -17 22 -30 25 -27 5 -33 -24 -6 -10 9 -21 14
-24 11 -3 -3 22 -34 56 -68 33 -35 63 -60 67 -56 4 3 -8 21 -25 39 -45 46 -27
56 20 10 21 -20 41 -33 45 -30 4 4 -22 37 -57 72 -60 61 -80 75 -80 58z"/>
<path d="M5488 4097 c12 -13 22 -26 22 -30 0 -13 -23 -7 -42 10 -10 9 -18 12
-18 7 0 -5 27 -36 60 -69 58 -57 87 -69 34 -14 -43 45 -23 57 24 15 23 -21 42
-34 42 -29 0 11 -123 133 -135 133 -4 0 1 -10 13 -23z"/>
<path d="M6117 4112 c-8 -11 70 -88 79 -79 4 4 -1 16 -10 26 -10 11 -15 25
-11 30 3 6 -2 11 -12 11 -11 0 -24 5 -30 11 -6 6 -13 7 -16 1z"/>
<path d="M6770 4113 c0 -4 10 -17 22 -30 25 -27 5 -33 -24 -6 -10 9 -21 13
-25 10 -3 -4 22 -34 55 -69 34 -34 65 -59 69 -55 3 4 -8 22 -26 41 -18 19 -29
36 -23 40 5 3 22 -8 37 -24 16 -17 36 -30 44 -30 9 0 -12 28 -49 65 -60 61
-80 75 -80 58z"/>
<path d="M6083 4058 c6 -18 -22 -48 -39 -41 -23 9 -16 -12 16 -42 l30 -29 32
32 31 33 -28 29 c-30 31 -50 39 -42 18z m27 -63 c-7 -8 -16 -15 -21 -15 -13 0
-11 24 3 38 18 18 35 -3 18 -23z"/>
<path d="M5428 4054 c-4 -3 -2 -14 5 -25 14 -23 2 -36 -18 -19 -9 7 -18 10
-22 6 -4 -3 13 -27 37 -51 l44 -45 25 25 26 25 -46 45 c-25 25 -48 43 -51 39z
m57 -74 c11 -17 -5 -32 -21 -19 -8 6 -14 15 -14 20 0 12 27 11 35 -1z"/>
<path d="M4105 4030 c-18 -20 -18 -21 25 -65 l44 -45 25 25 c14 13 22 28 18
31 -4 4 -14 -1 -22 -12 -13 -18 -15 -18 -47 14 -29 28 -31 35 -20 52 16 26 0
26 -23 0z"/>
<path d="M6705 4030 c-18 -20 -18 -21 25 -65 l44 -45 23 22 23 22 -42 43 c-23
24 -45 43 -49 43 -3 0 -14 -9 -24 -20z m63 -33 c24 -23 29 -47 9 -47 -19 0
-70 57 -62 69 7 13 20 7 53 -22z"/>
<path d="M6177 4000 c-34 -27 -49 -54 -41 -74 10 -25 43 -19 75 14 53 53 23
105 -34 60z m43 -20 c0 -24 -47 -57 -61 -43 -6 6 -2 19 11 36 25 32 50 35 50
7z"/>
<path d="M1462 3979 c-13 -5 -35 -6 -48 -3 -22 6 -24 4 -19 -18 3 -13 1 -36
-5 -52 -8 -21 -7 -27 2 -24 7 3 17 19 23 36 5 19 16 32 25 32 18 0 58 26 50
33 -3 3 -15 1 -28 -4z"/>
<path d="M3380 3971 c0 -6 5 -13 10 -16 8 -5 7 -11 -1 -21 -15 -19 -4 -31 14
-15 11 9 17 8 27 -4 7 -8 20 -15 28 -15 11 0 3 13 -23 40 -39 40 -55 49 -55
31z"/>
<path d="M4030 3973 c0 -14 54 -63 69 -63 10 0 3 12 -19 35 -32 33 -50 43 -50
28z"/>
<path d="M5980 3975 c0 -3 9 -16 20 -28 25 -27 7 -37 -21 -11 -12 10 -19 13
-19 5 0 -16 109 -125 117 -117 4 3 -8 21 -25 39 -45 46 -27 56 20 10 21 -20
41 -33 45 -30 4 4 -22 37 -57 72 -58 59 -80 75 -80 60z"/>
<path d="M752 3927 c-47 -48 -51 -57 -23 -57 24 0 45 -25 37 -45 -7 -19 8 -19
24 0 7 8 18 15 26 15 26 0 26 -22 -1 -50 -15 -15 -23 -30 -18 -33 12 -8 129
110 120 119 -4 4 -18 -3 -31 -15 -25 -23 -46 -21 -46 3 0 8 7 19 15 26 20 16
19 31 0 23 -19 -7 -58 26 -51 44 10 24 -10 13 -52 -30z m68 -44 c0 -22 -29
-27 -50 -8 -19 17 -19 19 -3 37 15 17 17 17 35 2 10 -10 18 -23 18 -31z"/>
<path d="M1495 3950 c-10 -11 -26 -20 -37 -20 -10 0 -18 -7 -18 -17 0 -9 -10
-27 -22 -40 -12 -13 -18 -26 -14 -30 7 -7 126 105 126 119 0 14 -17 8 -35 -12z"/>
<path d="M2117 3929 c23 -24 45 -40 48 -37 3 3 -1 13 -10 22 -10 9 -14 23 -11
31 3 10 -1 15 -13 15 -11 0 -28 3 -38 6 -10 4 0 -12 24 -37z"/>
<path d="M4640 3925 l-44 -45 29 -30 c33 -34 42 -36 65 -15 15 14 18 14 30 0
11 -13 9 -20 -10 -40 -12 -13 -21 -28 -18 -35 2 -6 32 19 68 55 35 36 58 65
50 65 -7 0 -24 -10 -37 -21 -19 -18 -25 -20 -38 -9 -14 12 -14 15 0 30 32 36
13 42 -23 7 -42 -41 -53 -44 -72 -22 -11 13 -7 22 23 53 21 21 37 41 37 45 0
16 -18 4 -60 -38z"/>
<path d="M6685 3900 c39 -39 72 -65 74 -59 2 6 -11 24 -27 40 -19 19 -29 36
-25 46 4 11 2 14 -8 11 -8 -3 -25 3 -38 13 -54 42 -41 14 24 -51z"/>
<path d="M7242 3927 c-47 -47 -50 -55 -24 -53 13 1 16 -5 14 -24 -3 -22 2 -20
47 25 52 50 63 69 36 59 -9 -4 -18 2 -23 15 -7 20 -10 19 -50 -22z m42 -6 c3
-4 -1 -17 -9 -27 -11 -15 -16 -16 -26 -7 -10 10 -9 15 1 28 14 17 26 19 34 6z"/>
<path d="M2697 3953 c-3 -3 -4 -18 -1 -33 4 -15 1 -37 -5 -49 -7 -11 -8 -21
-3 -21 15 0 32 24 32 46 0 17 8 24 29 29 31 7 64 35 42 35 -7 0 -21 -5 -32
-10 -13 -7 -25 -7 -38 -1 -10 6 -21 8 -24 4z"/>
<path d="M2765 3880 c-32 -33 -56 -63 -52 -66 4 -4 18 3 32 16 l25 23 24 -22
c31 -29 47 -9 17 23 l-21 22 25 24 c25 23 32 40 17 40 -4 0 -34 -27 -67 -60z"/>
<path d="M5290 3935 c-1 0 -2 -21 -3 -47 -3 -54 8 -64 18 -18 5 22 16 34 41
45 19 8 34 15 34 17 0 2 -20 3 -45 3 -25 0 -45 0 -45 0z"/>
<path d="M1486 3881 c-26 -27 -44 -51 -39 -54 6 -4 25 9 43 28 26 26 39 33 57
29 28 -7 30 7 5 29 -17 16 -21 14 -66 -32z"/>
<path d="M2046 3915 c8 -20 -13 -45 -32 -38 -23 9 -16 -11 14 -40 l28 -27 29
30 29 30 -29 30 c-31 33 -48 39 -39 15z m31 -62 c-12 -12 -20 -14 -28 -6 -7 7
-5 15 7 27 12 12 20 14 27 7 8 -8 6 -16 -6 -28z"/>
<path d="M5345 3870 c-32 -33 -56 -63 -52 -67 8 -7 127 105 127 119 0 18 -19
5 -75 -52z"/>
<path d="M7300 3865 c-36 -36 -60 -65 -55 -65 5 0 19 10 32 22 28 26 38 19 22
-16 -18 -38 0 -52 39 -32 35 18 62 52 62 78 0 20 -21 23 -51 8 -27 -15 -25 7
3 37 12 13 19 25 17 28 -3 2 -34 -25 -69 -60z m80 -29 c0 -18 -49 -58 -61 -50
-10 6 -5 19 19 47 18 21 42 22 42 3z"/>
<path d="M6572 3900 c-12 -12 -22 -26 -22 -32 0 -6 11 -2 23 11 21 19 25 20
37 6 11 -13 10 -19 -6 -36 -17 -19 -17 -20 7 -45 l26 -25 31 32 c30 31 40 49
26 49 -3 0 -15 -11 -26 -25 -11 -14 -25 -25 -33 -25 -22 0 -25 27 -4 46 19 17
19 18 -3 41 -26 28 -29 28 -56 3z"/>
<path d="M3320 3907 c0 -2 7 -18 16 -36 9 -17 13 -38 10 -46 -3 -8 -1 -15 4
-15 5 0 10 12 12 28 2 21 9 28 31 30 39 5 33 22 -7 22 -19 0 -38 5 -41 10 -6
9 -25 14 -25 7z"/>
<path d="M3975 3893 c5 -10 10 -33 13 -50 5 -37 22 -35 22 3 0 17 5 24 19 24
11 0 23 5 26 10 4 6 -6 10 -24 10 -16 0 -33 5 -36 10 -11 18 -28 11 -20 -7z"/>
<path d="M5915 3890 c-18 -20 -18 -21 25 -65 l44 -45 25 25 c14 13 22 28 18
31 -4 4 -14 -1 -22 -12 -13 -18 -15 -18 -47 14 -29 28 -31 35 -20 52 16 26 0
26 -23 0z"/>
<path d="M4072 3859 c-24 -23 -40 -44 -37 -47 3 -3 23 12 45 33 47 46 54 36 9
-11 -31 -32 -34 -64 -6 -64 15 0 93 77 85 85 -3 3 -22 -11 -43 -30 -49 -47
-59 -36 -12 13 29 30 34 41 25 50 -17 17 -18 16 -66 -29z"/>
<path d="M3460 3877 c-13 -7 -32 -25 -44 -40 -16 -22 -18 -31 -9 -45 14 -22
41 -17 76 16 46 44 29 95 -23 69z m30 -29 c0 -19 -32 -48 -52 -48 -25 0 -23
16 7 46 24 24 45 25 45 2z"/>
<path d="M2131 3845 c-35 -41 -37 -68 -5 -73 30 -4 86 51 82 80 -5 38 -40 34
-77 -7z m59 3 c0 -16 -41 -58 -57 -58 -20 0 -16 21 9 47 23 25 48 31 48 11z"/>
<path d="M5396 3860 c-33 -21 -60 -65 -51 -80 13 -21 54 -9 84 25 34 40 36 46
19 63 -16 16 -18 15 -52 -8z m39 -9 c3 -5 -5 -22 -18 -37 -17 -19 -29 -25 -42
-20 -17 6 -16 9 10 36 30 32 40 36 50 21z"/>
<path d="M1260 3825 c-54 -55 -45 -74 9 -21 l39 38 30 -33 c17 -19 34 -31 37
-27 8 7 -51 88 -64 88 -4 0 -27 -20 -51 -45z"/>
<path d="M2590 3852 c0 -13 124 -132 138 -132 22 0 12 15 -51 78 -57 56 -87
75 -87 54z"/>
<path d="M646 3832 c-3 -5 17 -30 43 -56 27 -26 51 -44 55 -38 3 5 -3 17 -14
27 -11 10 -20 27 -20 37 0 11 -5 16 -11 13 -5 -4 -19 1 -29 10 -10 9 -21 12
-24 7z"/>
<path d="M1950 3833 c0 -3 7 -15 17 -25 22 -25 8 -36 -17 -13 -11 10 -23 15
-27 11 -4 -4 21 -34 55 -68 34 -34 64 -59 68 -55 4 4 -7 22 -24 40 -45 46 -27
56 20 10 21 -20 41 -33 45 -30 4 4 -22 37 -57 72 -60 60 -80 75 -80 58z"/>
<path d="M3240 3830 c0 -14 55 -70 69 -70 17 0 13 -17 -6 -32 -10 -7 -27 -23
-37 -36 -19 -22 -19 -22 4 -47 l24 -25 43 42 43 42 -45 46 c-34 35 -44 51 -39
65 6 15 4 17 -11 12 -9 -4 -24 -2 -31 4 -11 9 -14 8 -14 -1z m110 -124 c0 -7
-11 -23 -25 -36 -20 -19 -27 -21 -40 -10 -14 12 -13 16 11 41 26 27 54 29 54
5z"/>
<path d="M4540 3829 c0 -19 67 -85 76 -76 4 4 0 15 -8 24 -9 10 -13 24 -10 32
3 8 -1 12 -9 9 -8 -3 -22 1 -31 10 -16 13 -18 13 -18 1z"/>
<path d="M5190 3832 c0 -14 79 -86 86 -79 4 4 -1 16 -10 26 -10 11 -15 25 -11
30 3 7 -2 11 -14 11 -11 0 -23 5 -26 10 -7 12 -25 13 -25 2z"/>
<path d="M5840 3832 c0 -14 89 -96 97 -89 4 4 -13 28 -37 52 -42 43 -60 54
-60 37z"/>
<path d="M7140 3832 c0 -14 89 -96 97 -89 4 4 -13 28 -37 52 -42 43 -60 54
-60 37z"/>
<path d="M6494 3812 c8 -24 -44 -75 -67 -66 -27 10 -19 -8 18 -45 33 -33 35
-34 54 -17 20 19 41 14 41 -8 0 -7 -9 -21 -20 -31 -11 -10 -20 -23 -20 -29 0
-6 29 18 65 54 35 35 62 66 60 69 -3 2 -15 -5 -28 -17 -13 -12 -28 -22 -35
-22 -21 0 -24 21 -6 41 17 19 16 21 -16 54 -37 38 -54 45 -46 17z m42 -43 c3
-6 -7 -25 -25 -42 -24 -25 -33 -29 -43 -19 -9 9 -6 18 17 42 31 33 40 36 51
19z"/>
<path d="M2535 3784 c-40 -40 44 -131 96 -104 28 16 24 57 -10 91 -33 32 -62
37 -86 13z m70 -29 c30 -29 32 -55 5 -55 -36 0 -74 53 -53 73 11 12 23 8 48
-18z"/>
<path d="M3850 3763 c0 -17 -3 -40 -6 -50 -5 -16 -4 -16 10 1 9 11 16 28 16
38 0 11 7 18 18 18 10 0 26 6 35 13 15 10 11 12 -28 12 -44 0 -45 -1 -45 -32z"/>
<path d="M615 3771 c7 -22 -16 -44 -39 -35 -25 9 -19 -3 16 -36 l32 -31 30 30
30 31 -29 30 c-33 34 -49 39 -40 11z m38 -45 c3 -12 -30 -32 -39 -24 -11 12 5
40 21 36 9 -2 17 -7 18 -12z"/>
<path d="M1392 3757 l-31 -31 -24 22 c-13 12 -26 22 -30 22 -14 0 -6 -28 13
-45 l20 -18 -21 -23 c-11 -12 -16 -24 -11 -27 4 -4 37 22 71 57 35 35 59 66
54 69 -5 3 -24 -8 -41 -26z"/>
<path d="M3905 3730 c-59 -60 -72 -99 -14 -44 l31 29 -7 -42 c-6 -40 -5 -43
15 -43 32 0 58 17 76 51 20 40 5 63 -33 48 -35 -13 -41 -4 -15 24 12 13 22 26
22 30 0 17 -20 3 -75 -53z m75 -55 c-26 -28 -50 -33 -50 -11 0 22 51 59 64 46
6 -6 2 -18 -14 -35z"/>
<path d="M5137 3762 c-28 -30 -37 -53 -12 -32 21 17 35 3 35 -36 0 -21 4 -33
10 -29 6 3 10 17 10 31 0 17 5 24 19 24 11 0 23 5 26 10 3 6 -4 10 -17 10 -13
0 -29 4 -37 9 -12 8 -12 12 -2 25 23 28 -4 17 -32 -12z"/>
<path d="M3238 3737 c-25 -32 -26 -32 -47 -13 -30 28 -40 10 -10 -19 l25 -25
38 39 c21 21 34 41 29 44 -5 3 -21 -9 -35 -26z"/>
<path d="M4476 3762 c-3 -5 1 -15 9 -22 8 -7 15 -25 15 -41 0 -16 5 -29 10
-29 6 0 10 11 10 24 0 18 7 25 31 30 17 3 28 10 25 15 -3 5 -15 7 -25 4 -10
-3 -30 3 -44 12 -14 9 -28 12 -31 7z"/>
<path d="M5780 3763 c0 -5 7 -17 15 -27 8 -11 15 -33 15 -49 0 -16 4 -26 10
-22 6 3 10 17 10 31 0 17 5 24 19 24 11 0 23 5 26 10 3 6 -4 10 -17 10 -14 0
-33 7 -44 15 -21 16 -34 19 -34 8z"/>
<path d="M7080 3765 c0 -4 7 -20 16 -36 8 -17 13 -37 10 -45 -3 -7 -1 -16 5
-19 5 -4 12 7 15 24 5 21 12 31 25 31 10 0 21 5 24 10 4 6 -6 10 -23 10 -16 0
-35 7 -42 15 -12 15 -30 20 -30 10z"/>
<path d="M1870 3739 c0 -8 19 -34 43 -57 l43 -42 24 25 c26 28 19 49 -7 22
-16 -16 -20 -14 -60 25 -26 26 -43 36 -43 27z"/>
<path d="M4587 3712 c-46 -48 -29 -100 24 -71 59 31 76 91 29 97 -17 2 -34 -6
-53 -26z m63 -4 c0 -16 -41 -58 -57 -58 -18 0 -16 30 4 52 18 20 53 24 53 6z"/>
<path d="M5240 3710 c-33 -36 -37 -52 -16 -69 17 -15 40 -5 74 32 28 30 25 61
-6 65 -15 2 -32 -7 -52 -28z m60 -3 c0 -19 -47 -60 -59 -52 -16 9 -13 23 9 45
23 23 50 26 50 7z"/>
<path d="M738 3683 c-30 -29 -40 -35 -50 -25 -19 19 -30 14 -18 -8 16 -30 31
-25 80 25 24 25 40 45 34 45 -5 0 -26 -17 -46 -37z"/>
<path d="M5935 3690 c-22 -23 -36 -29 -52 -25 -13 3 -23 2 -23 -3 0 -10 21
-32 31 -32 7 0 56 46 78 73 23 29 -4 19 -34 -13z"/>
<path d="M7235 3690 c-22 -23 -36 -29 -52 -25 -27 6 -30 -7 -7 -26 13 -11 22
-6 62 34 26 26 42 47 36 47 -6 0 -23 -14 -39 -30z"/>
<path d="M1248 3574 c-15 -8 -32 -23 -38 -34 -10 -19 -22 -20 -258 -20 -184 0
-252 3 -262 13 -8 6 -6 2 4 -10 11 -14 17 -33 14 -50 l-4 -28 240 2 239 3 39
-35 c53 -49 105 -49 154 -1 l35 34 231 1 c147 0 237 -3 250 -10 20 -11 20 -10
5 12 -10 13 -14 32 -11 46 l6 23 -245 0 c-233 0 -247 1 -260 20 -17 24 -65 50
-92 50 -11 -1 -32 -7 -47 -16z m90 -40 c26 -18 30 -74 6 -98 -24 -24 -80 -20
-98 6 -22 32 -20 55 9 83 28 29 51 31 83 9z"/>
<path d="M2543 3571 c-17 -11 -35 -27 -40 -36 -8 -14 -38 -15 -260 -13 -241 3
-251 2 -241 -15 5 -11 7 -29 4 -40 l-5 -22 243 3 244 3 19 -24 c46 -60 116
-64 171 -12 l36 36 242 -3 c219 -3 241 -1 234 13 -5 9 -6 25 -3 37 l5 22 -243
0 -243 0 -31 30 c-41 40 -90 48 -132 21z m97 -41 c42 -42 14 -110 -46 -110
-61 0 -86 71 -38 109 33 26 58 27 84 1z"/>
<path d="M638 3543 c6 -2 18 -2 25 0 6 3 1 5 -13 5 -14 0 -19 -2 -12 -5z"/>
<path d="M1916 3542 c-3 -5 8 -6 25 -4 16 2 29 6 29 8 0 8 -49 4 -54 -4z"/>
<path d="M3233 3543 c9 -2 23 -2 30 0 6 3 -1 5 -18 5 -16 0 -22 -2 -12 -5z"/>
<path d="M3883 3543 c9 -2 23 -2 30 0 6 3 -1 5 -18 5 -16 0 -22 -2 -12 -5z"/>
<path d="M4533 3543 c9 -2 23 -2 30 0 6 3 -1 5 -18 5 -16 0 -22 -2 -12 -5z"/>
<path d="M5183 3543 c9 -2 23 -2 30 0 6 3 -1 5 -18 5 -16 0 -22 -2 -12 -5z"/>
<path d="M5833 3543 c9 -2 23 -2 30 0 6 3 -1 5 -18 5 -16 0 -22 -2 -12 -5z"/>
<path d="M6470 3546 c0 -2 13 -6 29 -8 17 -2 28 -1 25 4 -5 8 -54 12 -54 4z"/>
<path d="M7120 3546 c0 -2 13 -6 29 -8 17 -2 28 -1 25 4 -5 8 -54 12 -54 4z"/>
<path d="M5144 3530 c-7 -7 -105 -10 -281 -8 -161 2 -269 -1 -265 -6 3 -5 5
-23 4 -40 l-1 -31 269 0 269 0 -6 28 c-4 19 0 34 12 47 19 20 17 28 -1 10z"/>
<path d="M5795 3530 c-4 -6 -107 -10 -276 -10 -264 0 -270 0 -264 -20 3 -10 2
-27 -3 -37 -10 -17 4 -18 264 -18 l273 0 -6 23 c-3 13 2 33 11 47 9 14 14 25
12 25 -3 0 -8 -4 -11 -10z"/>
<path d="M6445 3530 c-4 -6 -107 -10 -276 -10 -268 0 -270 0 -264 -20 4 -13 0
-31 -10 -46 -16 -25 -16 -25 5 -14 15 8 99 10 280 8 l259 -3 -6 23 c-3 13 2
33 11 47 9 14 14 25 12 25 -3 0 -8 -4 -11 -10z"/>
<path d="M7095 3530 c-4 -6 -107 -10 -277 -10 l-270 0 5 -22 c3 -12 2 -28 -3
-37 -7 -14 18 -16 261 -16 l269 0 0 29 c0 16 7 38 17 48 9 10 13 18 10 18 -3
0 -9 -4 -12 -10z"/>
<path d="M3302 3512 c6 -6 8 -24 5 -40 l-5 -27 268 0 268 0 4 40 3 40 -277 0
c-220 0 -274 -3 -266 -13z"/>
<path d="M3952 3507 c5 -11 7 -29 4 -40 l-5 -22 269 0 269 0 -5 22 c-3 11 -1
29 4 40 10 17 -1 18 -268 18 -267 0 -278 -1 -268 -18z"/>
<path d="M7195 3483 l0 -38 141 0 142 0 76 -79 76 -78 0 -608 0 -608 -77 -76
-77 -76 -126 0 c-123 0 -127 1 -148 25 -47 54 -111 55 -159 4 l-28 -29 -245 0
c-183 0 -250 3 -260 13 -8 6 -6 2 4 -10 12 -15 17 -33 14 -53 l-5 -30 246 0
246 0 28 -30 c24 -25 36 -30 77 -30 41 0 53 5 77 30 l28 30 135 0 135 0 98 98
97 97 0 647 0 646 -97 96 -96 96 -151 0 -151 0 0 -37z m-34 -1551 c27 -23 30
-75 6 -99 -24 -24 -76 -21 -99 6 -25 31 -23 57 7 86 29 30 55 32 86 7z"/>
<path d="M6804 3201 c-44 -27 -60 -77 -40 -124 20 -50 56 -71 109 -64 56 8 87
43 87 100 -1 87 -82 133 -156 88z m108 -133 c-9 -9 -19 -5 -46 21 -21 20 -36
29 -40 22 -4 -6 -12 -11 -17 -11 -10 0 -4 53 8 74 3 4 28 -15 56 -43 40 -40
49 -53 39 -63z"/>
<path d="M6647 3063 c-3 -5 25 -40 62 -77 38 -38 71 -64 74 -59 3 5 -25 40
-62 77 -38 38 -71 64 -74 59z"/>
<path d="M2750 3052 c0 -4 18 -26 40 -47 28 -27 40 -34 40 -23 0 9 -4 20 -10
23 -5 3 -10 15 -10 25 0 13 -5 17 -14 14 -8 -3 -17 -1 -21 5 -7 13 -25 15 -25
3z"/>
<path d="M6590 2985 c-33 -34 -36 -61 -4 -34 14 11 19 10 35 -11 10 -14 19
-40 19 -57 0 -18 4 -33 9 -33 13 0 20 25 14 49 -5 18 -1 21 26 21 17 0 31 5
31 10 0 6 -9 10 -20 10 -26 0 -80 27 -80 40 0 5 5 12 10 15 12 7 13 25 2 25
-4 0 -23 -16 -42 -35z"/>
<path d="M2692 2987 c-28 -30 -28 -37 1 -34 19 2 22 -3 25 -36 3 -39 22 -42
22 -3 0 15 9 26 28 33 l27 11 -25 1 c-40 2 -56 16 -41 35 22 27 -12 20 -37 -7z"/>
<path d="M2796 2929 c-14 -17 -26 -39 -26 -49 0 -41 56 -28 93 22 42 57 -20
83 -67 27z m64 3 c0 -18 -33 -52 -51 -52 -23 0 -25 17 -2 42 16 18 53 25 53
10z"/>
<path d="M6500 2922 c0 -4 23 -30 50 -57 32 -31 50 -43 50 -33 0 8 -7 21 -16
29 -8 7 -13 21 -10 32 4 15 0 18 -14 14 -11 -3 -24 1 -31 9 -12 15 -29 19 -29
6z"/>
<path d="M2572 2877 c-42 -42 -42 -44 -23 -61 16 -15 22 -15 40 -5 29 19 38 3
13 -24 -12 -13 -22 -27 -22 -32 0 -5 27 17 60 50 33 33 60 64 60 69 0 5 -10 0
-23 -12 -38 -36 -64 -27 -30 10 30 33 -3 18 -37 -17 -23 -23 -37 -32 -44 -25
-7 7 3 23 29 50 21 22 35 40 29 40 -5 0 -29 -19 -52 -43z"/>
<path d="M6442 2855 c-28 -32 -28 -36 9 -71 l30 -29 35 37 c33 37 43 58 25 58
-5 0 -16 -11 -25 -25 -19 -29 -38 -32 -56 -10 -11 13 -10 18 8 31 12 8 22 19
22 25 0 18 -26 9 -48 -16z"/>
<path d="M2680 2813 c-35 -24 -49 -44 -50 -70 0 -37 42 -30 79 12 34 40 36 46
19 63 -16 16 -19 15 -48 -5z m35 -14 c8 -12 -33 -59 -52 -59 -20 0 -16 21 9
47 24 25 34 28 43 12z"/>
<path d="M6592 2778 c-28 -28 -35 -31 -52 -21 -28 18 -33 -1 -7 -25 l23 -22
49 50 c28 29 43 50 34 50 -8 0 -29 -15 -47 -32z"/>
<path d="M5070 2782 c0 -14 129 -136 137 -129 4 4 -22 37 -57 72 -61 61 -80
75 -80 57z"/>
<path d="M6375 2770 c8 -25 -7 -53 -41 -75 -27 -18 -26 -7 4 28 24 27 -4 21
-36 -8 l-27 -25 32 -32 33 -32 30 29 c16 16 30 35 30 44 0 10 -9 6 -30 -14
-40 -39 -47 -28 -8 14 23 25 36 31 54 27 32 -8 30 4 -4 37 -33 32 -46 34 -37
7z"/>
<path d="M2453 2764 c-20 -8 -55 -73 -49 -89 12 -32 81 -2 106 45 20 37 -12
62 -57 44z m37 -31 c0 -20 -28 -53 -46 -53 -24 0 -26 22 -3 46 26 28 49 31 49
7z"/>
<path d="M5015 2710 c-16 -16 -24 -30 -18 -30 6 0 16 7 23 15 7 8 18 15 26 15
24 0 26 -21 5 -44 l-21 -22 29 -28 28 -27 33 41 c38 48 36 62 -4 21 -41 -43
-78 -22 -39 21 16 18 15 20 -8 44 l-25 24 -29 -30z"/>
<path d="M2496 2671 c-32 -32 -54 -61 -48 -64 5 -4 20 5 32 18 16 17 30 23 43
19 15 -5 18 -2 13 13 -4 13 1 26 14 38 20 18 26 35 12 35 -4 0 -34 -26 -66
-59z"/>
<path d="M6410 2675 c-51 -52 -46 -75 5 -25 44 43 46 28 3 -17 -30 -31 -31
-34 -16 -50 16 -15 20 -13 65 30 26 25 44 49 40 53 -4 4 -22 -7 -40 -24 -47
-45 -59 -40 -14 6 36 37 37 39 19 55 -17 16 -21 14 -62 -28z"/>
<path d="M2560 2635 c-27 -27 -39 -33 -59 -29 l-26 6 22 -23 23 -23 45 44 c25
24 45 48 45 52 0 16 -17 7 -50 -27z"/>
<path d="M2336 2642 c-3 -5 12 -26 33 -46 22 -22 41 -33 45 -28 3 6 2 13 -4
17 -5 3 -10 15 -10 26 0 12 -4 17 -11 14 -5 -4 -19 1 -29 10 -10 9 -21 12 -24
7z"/>
<path d="M4949 2624 c14 -18 19 -34 15 -51 -6 -23 -5 -24 14 -12 19 12 25 10
57 -21 19 -19 35 -30 35 -24 0 11 -122 134 -133 134 -5 0 1 -12 12 -26z"/>
<path d="M6230 2642 c0 -17 128 -134 140 -127 8 5 -9 28 -51 71 -57 58 -89 78
-89 56z"/>
<path d="M6180 2575 c-31 -32 -37 -62 -7 -36 19 15 46 -16 54 -63 7 -41 23
-39 23 5 0 26 3 29 30 29 17 0 30 5 30 10 0 6 -13 10 -29 10 -39 0 -81 34 -63
51 6 7 12 17 12 21 0 16 -17 7 -50 -27z"/>
<path d="M2275 2580 c-10 -11 -13 -20 -8 -20 13 0 38 29 31 35 -3 3 -13 -4
-23 -15z"/>
<path d="M2295 2560 c-22 -22 -35 -40 -29 -40 13 0 79 68 73 75 -3 2 -23 -13
-44 -35z"/>
<path d="M4876 2571 c-15 -16 -23 -31 -18 -35 5 -3 17 3 27 14 10 11 21 20 25
20 12 0 30 -50 30 -85 0 -19 5 -35 10 -35 28 0 -5 138 -35 147 -6 2 -23 -10
-39 -26z"/>
<path d="M2317 2542 c-23 -25 -22 -52 1 -52 23 0 52 30 52 53 0 23 -33 22 -53
-1z m30 -19 c-8 -9 -21 -13 -27 -11 -9 3 -8 9 4 21 10 9 22 14 28 11 6 -4 4
-12 -5 -21z"/>
<path d="M2420 2547 c0 -16 -42 -57 -58 -57 -18 0 -14 -15 8 -35 20 -19 22
-18 62 23 41 40 42 42 23 62 -21 23 -35 26 -35 7z m5 -57 c-15 -16 -32 -27
-37 -24 -12 8 31 54 51 54 10 0 6 -9 -14 -30z"/>
<path d="M3514 2531 c-90 -55 -47 -191 59 -191 103 0 137 148 45 196 -37 19
-67 18 -104 -5z m99 -132 c-8 -8 -20 -2 -46 21 -21 18 -38 27 -42 20 -11 -17
-23 -2 -18 23 11 52 13 52 66 -1 37 -37 48 -55 40 -63z"/>
<path d="M6090 2502 c0 -14 129 -136 137 -129 4 4 -22 37 -57 72 -61 61 -80
75 -80 57z"/>
<path d="M862 2457 c-42 -42 -42 -44 -23 -61 16 -15 22 -15 40 -5 33 21 37 1
6 -31 -16 -17 -24 -30 -19 -30 13 0 129 118 123 125 -3 3 -16 -6 -29 -20 -13
-14 -27 -25 -32 -25 -13 0 -9 22 9 42 30 33 -3 18 -37 -17 -19 -19 -38 -35
-42 -35 -18 0 -6 26 29 62 20 21 33 38 27 38 -5 0 -29 -19 -52 -43z"/>
<path d="M2162 2457 c-47 -48 -54 -66 -17 -41 27 18 33 7 15 -27 -6 -10 -7
-19 -2 -19 4 0 16 15 25 34 10 21 24 36 38 38 12 2 24 9 27 16 3 10 -2 10 -22
1 -34 -16 -44 -5 -21 21 35 39 -1 19 -43 -23z"/>
<path d="M4790 2492 c0 -15 128 -134 133 -125 4 6 -7 23 -23 38 -21 20 -28 35
-24 48 5 15 2 18 -13 13 -13 -4 -26 1 -38 14 -18 20 -35 26 -35 12z"/>
<path d="M6707 2462 c-49 -50 -48 -77 1 -29 21 20 41 37 45 37 16 0 5 -26 -25
-57 l-32 -33 22 -22 c17 -17 24 -20 34 -10 16 16 38 15 38 -1 0 -8 -9 -22 -20
-32 -11 -10 -20 -23 -20 -29 0 -6 29 18 65 54 35 35 62 66 60 69 -3 2 -15 -5
-28 -17 -40 -38 -67 -20 -30 20 28 31 -1 20 -32 -12 -29 -30 -55 -39 -55 -20
0 6 14 24 30 40 17 16 30 33 30 38 0 9 -33 42 -41 42 -3 0 -22 -17 -42 -38z"/>
<path d="M2809 2461 c-34 -34 -39 -71 -10 -71 24 0 81 58 81 83 0 27 -38 21
-71 -12z m51 -3 c0 -16 -31 -48 -47 -48 -18 0 -16 20 4 42 18 20 43 24 43 6z"/>
<path d="M2860 2405 c-36 -36 -60 -65 -55 -65 5 0 19 10 32 22 13 12 26 18 30
14 5 -4 -1 -14 -11 -22 -11 -7 -16 -17 -13 -21 4 -4 25 11 47 32 22 22 40 35
40 29 0 -6 -16 -25 -35 -44 -26 -26 -32 -37 -24 -47 6 -7 16 -13 22 -13 15 0
87 76 87 92 0 7 -16 -4 -35 -24 -20 -21 -41 -38 -47 -38 -7 0 5 18 27 40 33
33 36 41 25 55 -12 14 -15 14 -30 0 -31 -28 -45 -16 -15 15 16 16 26 32 24 35
-3 2 -34 -25 -69 -60z"/>
<path d="M2260 2435 c-13 -14 -31 -24 -39 -23 -9 2 -15 -3 -13 -11 2 -7 -7
-24 -19 -37 -12 -13 -19 -27 -15 -31 4 -4 34 20 67 54 34 33 57 63 52 66 -6 4
-21 -5 -33 -18z"/>
<path d="M6035 2430 l-29 -31 47 -47 48 -47 34 37 c45 48 46 72 2 30 l-33 -32
-32 33 c-32 33 -32 33 -12 52 21 19 26 35 12 35 -5 0 -21 -14 -37 -30z"/>
<path d="M4736 2431 c-3 -5 1 -15 10 -22 21 -17 44 -64 44 -89 0 -11 5 -20 10
-20 6 0 10 14 10 30 0 25 4 30 24 30 14 0 28 5 31 10 4 6 -6 10 -24 10 -19 0
-43 11 -65 30 -19 17 -37 27 -40 21z"/>
<path d="M955 2379 c-42 -37 -49 -79 -12 -79 27 1 48 16 71 53 15 22 16 30 6
42 -17 21 -25 19 -65 -16z m45 -6 c0 -20 -28 -53 -47 -53 -20 0 -16 21 9 47
25 27 38 29 38 6z"/>
<path d="M2246 2372 c-29 -31 -33 -71 -8 -80 16 -5 95 74 90 90 -9 26 -52 20
-82 -10z m58 -4 c-15 -27 -38 -48 -51 -48 -18 0 -16 20 4 42 18 21 58 25 47 6z"/>
<path d="M1475 2310 c39 -39 71 -66 73 -60 5 14 -111 130 -129 130 -8 0 18
-32 56 -70z"/>
<path d="M2070 2371 c0 -5 7 -14 15 -21 9 -7 13 -21 10 -31 -5 -14 -2 -17 10
-13 9 4 24 -1 35 -11 41 -37 32 -3 -10 40 -43 44 -60 54 -60 36z"/>
<path d="M2775 2310 c37 -38 73 -66 78 -63 12 7 -113 133 -132 133 -9 0 16
-31 54 -70z"/>
<path d="M4010 2368 c0 -18 61 -78 80 -78 10 0 8 5 -5 20 -10 11 -15 26 -11
35 4 12 1 15 -13 13 -10 -2 -25 3 -34 11 -15 11 -17 11 -17 -1z"/>
<path d="M4662 2363 c2 -10 -7 -22 -22 -30 -14 -6 -36 -23 -48 -36 l-22 -23
30 -29 30 -29 26 25 c14 13 30 34 35 47 7 17 14 22 29 17 29 -9 24 7 -13 43
-37 36 -49 40 -45 15z m28 -42 c0 -12 -20 -25 -27 -18 -7 7 6 27 18 27 5 0 9
-4 9 -9z m-40 -36 c10 -12 10 -18 0 -30 -12 -14 -15 -14 -31 1 -14 13 -16 20
-8 31 15 17 24 17 39 -2z"/>
<path d="M5306 2372 c-7 -11 81 -98 90 -89 4 4 -1 16 -10 26 -10 11 -15 25
-11 30 3 6 -1 11 -11 11 -10 0 -25 7 -35 16 -9 8 -20 11 -23 6z"/>
<path d="M5950 2368 c0 -12 80 -98 93 -98 13 0 8 27 -8 40 -8 7 -14 20 -13 29
2 10 -3 15 -13 13 -9 -1 -22 5 -29 13 -15 18 -30 20 -30 3z"/>
<path d="M7250 2372 c0 -4 17 -25 39 -46 49 -48 68 -30 20 20 -31 32 -59 44
-59 26z"/>
<path d="M722 2327 c-48 -49 -55 -68 -15 -42 28 19 28 21 6 -32 -3 -7 -1 -13
5 -13 5 0 15 14 22 31 8 19 24 35 42 41 15 6 28 14 28 19 0 12 -7 11 -31 -1
-20 -11 -28 3 -9 15 12 7 13 25 2 25 -4 0 -27 -19 -50 -43z"/>
<path d="M6570 2325 c-24 -24 -41 -47 -39 -50 3 -2 21 11 39 30 39 41 50 43
68 14 15 -23 9 -35 -43 -81 -16 -14 -27 -30 -22 -34 4 -4 18 3 32 16 l25 24
29 -28 c38 -36 54 -15 17 23 l-26 27 25 24 c30 28 32 44 6 35 -14 -4 -25 1
-37 20 -9 14 -19 25 -23 25 -4 0 -27 -20 -51 -45z"/>
<path d="M3322 2323 c1 -21 -2 -46 -7 -57 -6 -14 -5 -18 6 -14 8 2 18 18 23
36 7 23 18 33 38 37 27 6 45 22 35 31 -2 2 -17 0 -32 -6 -20 -7 -31 -8 -39 0
-18 18 -26 10 -24 -27z"/>
<path d="M3385 2280 c-32 -33 -56 -63 -52 -66 4 -4 17 2 30 14 29 27 39 27 62
2 13 -14 22 -17 29 -10 6 6 2 18 -14 35 l-23 25 21 23 c12 13 22 26 22 30 0
17 -20 3 -75 -53z"/>
<path d="M775 2270 c-59 -60 -72 -99 -14 -44 l31 29 -7 -42 c-7 -42 -6 -43 20
-43 27 0 85 50 85 74 0 24 -21 35 -48 25 -34 -13 -40 -3 -14 24 12 13 22 26
22 30 0 17 -20 3 -75 -53z m75 -55 c-26 -28 -50 -33 -50 -11 0 22 51 59 64 46
6 -6 2 -18 -14 -35z"/>
<path d="M1360 2310 c-24 -24 -25 -43 -4 -64 30 -31 84 -9 84 34 0 17 -34 50
-52 50 -5 0 -17 -9 -28 -20z m50 -15 c17 -20 5 -45 -20 -45 -11 0 -23 7 -26
15 -6 15 11 45 26 45 4 0 13 -7 20 -15z"/>
<path d="M2004 2316 c-10 -8 -15 -18 -11 -22 4 -4 15 0 24 9 22 21 12 31 -13
13z"/>
<path d="M2655 2310 c-10 -11 -16 -22 -13 -25 3 -3 13 4 23 15 10 11 16 22 13
25 -3 3 -13 -4 -23 -15z"/>
<path d="M3945 2306 c-21 -32 -10 -56 26 -56 31 0 36 -9 17 -28 -6 -6 -8 -15
-4 -19 4 -5 23 10 42 31 36 42 47 71 16 43 -25 -23 -35 -21 -29 5 13 47 -41
66 -68 24z m51 -8 c9 -15 -27 -41 -39 -29 -13 13 -1 41 17 41 8 0 18 -5 22
-12z"/>
<path d="M7192 2307 c-31 -33 -29 -57 3 -27 29 27 47 19 20 -10 -19 -21 -15
-47 9 -56 17 -6 87 66 78 80 -3 5 -18 -6 -33 -24 -16 -19 -32 -31 -35 -27 -4
4 2 18 14 30 22 23 22 24 4 40 -25 22 -34 21 -60 -6z"/>
<path d="M2019 2284 l-34 -35 28 6 c25 7 27 5 27 -24 0 -38 17 -41 22 -3 2 19
9 28 26 30 33 5 27 22 -8 22 -32 0 -37 9 -18 28 7 7 8 12 2 12 -6 0 -26 -16
-45 -36z"/>
<path d="M2682 2287 c-36 -37 -42 -53 -12 -35 25 16 40 -1 40 -44 0 -16 5 -28
10 -28 6 0 10 14 10 30 0 27 3 30 32 30 37 0 30 12 -10 18 -38 5 -49 18 -34
42 19 31 -1 24 -36 -13z"/>
<path d="M5240 2303 c0 -5 7 -17 15 -27 8 -11 15 -32 15 -48 0 -15 5 -28 10
-28 6 0 10 14 10 30 0 25 4 30 25 30 14 0 25 5 25 10 0 6 -13 10 -29 10 -16 0
-34 7 -41 15 -13 16 -30 20 -30 8z"/>
<path d="M5890 2296 c0 -7 7 -19 15 -26 8 -7 15 -25 15 -41 0 -16 5 -29 10
-29 6 0 10 14 10 30 0 25 4 30 25 30 14 0 25 5 25 10 0 6 -10 10 -23 10 -13 0
-32 7 -43 15 -24 18 -34 19 -34 1z"/>
<path d="M7302 2248 l-41 -43 22 -23 21 -23 45 46 c38 37 44 48 35 63 -19 29
-40 25 -82 -20z m58 4 c0 -14 -56 -63 -63 -55 -4 3 5 19 20 35 27 28 43 35 43
20z"/>
<path d="M4706 2254 c-45 -46 -27 -101 24 -74 27 14 60 68 53 86 -8 23 -48 16
-77 -12z m57 0 c9 -10 -11 -42 -33 -54 -16 -9 -22 -7 -26 5 -11 27 39 69 59
49z"/>
<path d="M1446 2224 c-21 -24 -36 -48 -31 -52 7 -7 85 76 85 91 0 15 -16 4
-54 -39z"/>
<path d="M2161 2236 c-28 -28 -40 -34 -60 -30 l-26 6 23 -23 22 -24 41 42 c23
22 40 46 38 52 -3 7 -19 -4 -38 -23z"/>
<path d="M4056 2239 c-53 -63 -9 -94 50 -35 40 40 40 59 2 64 -18 2 -33 -6
-52 -29z m58 -2 c-15 -26 -38 -47 -51 -47 -22 0 -15 27 13 49 27 21 50 20 38
-2z"/>
<path d="M5396 2224 c-30 -29 -40 -33 -52 -23 -23 19 -30 1 -8 -21 20 -20 20
-20 64 25 53 54 50 70 -4 19z"/>
<path d="M6040 2225 c-26 -27 -37 -32 -47 -23 -22 18 -28 0 -8 -22 19 -21 19
-20 62 22 24 23 43 46 43 50 0 16 -17 7 -50 -27z"/>
<path d="M630 2232 c0 -14 89 -96 97 -89 4 4 -13 28 -37 52 -42 43 -60 54 -60
37z"/>
<path d="M2570 2232 c0 -14 129 -136 137 -129 3 4 -7 22 -24 40 -17 17 -28 38
-25 46 3 10 0 12 -11 8 -9 -3 -24 4 -38 19 -22 24 -39 31 -39 16z"/>
<path d="M3175 2209 c-14 -18 -25 -41 -23 -53 3 -18 9 -21 47 -19 l44 2 -28
-29 c-16 -17 -25 -33 -21 -37 4 -4 34 21 68 55 34 34 59 64 55 68 -4 4 -18 -3
-32 -16 -28 -26 -42 -22 -26 8 30 56 -40 73 -84 21z m65 -4 c0 -17 -35 -55
-49 -55 -20 0 -20 19 0 44 22 29 49 35 49 11z"/>
<path d="M3880 2233 c0 -6 7 -16 15 -23 9 -7 13 -21 10 -31 -5 -14 -2 -17 10
-13 9 4 24 -1 35 -11 40 -36 19 2 -25 45 -25 24 -45 39 -45 33z"/>
<path d="M4520 2229 c0 -19 67 -85 77 -76 4 4 1 13 -5 19 -7 7 -12 20 -12 31
0 11 -5 17 -12 14 -7 -2 -21 2 -30 11 -16 13 -18 13 -18 1z"/>
<path d="M5184 2221 c9 -10 14 -24 11 -32 -4 -10 4 -14 26 -15 l30 -1 -32 33
c-34 35 -65 49 -35 15z"/>
<path d="M5815 2230 c-7 -12 110 -140 127 -140 16 0 7 27 -17 50 -14 13 -25
32 -25 43 0 11 -5 17 -12 14 -7 -2 -25 7 -39 20 -19 17 -29 21 -34 13z"/>
<path d="M6466 2232 c-7 -11 61 -78 71 -69 4 4 1 13 -5 19 -7 7 -12 20 -12 31
0 10 -5 15 -10 12 -6 -4 -17 -2 -25 5 -7 6 -16 7 -19 2z"/>
<path d="M7120 2233 c0 -3 7 -15 17 -25 22 -25 8 -36 -17 -13 -11 10 -23 15
-27 11 -4 -4 21 -34 55 -68 34 -34 64 -59 68 -55 4 4 -8 23 -26 42 -43 44 -18
47 27 3 18 -17 36 -28 40 -25 4 4 -22 37 -57 72 -60 60 -80 75 -80 58z"/>
<path d="M1923 2216 c7 -18 -43 -66 -68 -66 -17 0 -15 -5 12 -32 l32 -32 41
41 c22 23 40 45 40 50 0 11 -43 53 -54 53 -5 0 -6 -6 -3 -14z m30 -33 c8 -7
-41 -63 -55 -63 -15 0 -8 24 14 47 23 24 30 27 41 16z"/>
<path d="M1255 2170 c-27 -28 -44 -50 -38 -50 7 0 15 5 18 10 12 20 26 10 15
-11 -6 -11 -9 -25 -7 -32 3 -7 12 4 21 24 10 25 25 40 46 47 16 6 30 16 30 22
0 7 -6 8 -19 0 -33 -17 -46 -12 -26 10 10 11 16 22 14 25 -3 2 -27 -18 -54
-45z"/>
<path d="M1225 2190 c-27 -30 -12 -34 15 -5 13 14 19 25 13 25 -5 0 -18 -9
-28 -20z"/>
<path d="M2542 2188 c-18 -18 -14 -30 8 -23 15 5 24 -2 40 -27 11 -18 20 -41
20 -50 0 -10 5 -18 10 -18 22 0 -1 71 -38 113 -18 20 -24 21 -40 5z"/>
<path d="M4465 2170 c-33 -35 -26 -54 8 -22 22 20 24 21 40 5 15 -15 17 -15
17 -2 0 9 -8 23 -18 32 -17 16 -20 15 -47 -13z"/>
<path d="M3805 2170 c-10 -11 -14 -20 -8 -20 5 0 18 9 28 20 10 11 14 20 8 20
-5 0 -18 -9 -28 -20z"/>
<path d="M5105 2170 c-10 -11 -13 -20 -8 -20 13 0 38 29 31 35 -3 3 -13 -4
-23 -15z"/>
<path d="M5765 2160 c-33 -34 -28 -53 6 -19 l22 22 13 -24 c7 -13 13 -43 14
-67 0 -26 4 -41 10 -37 17 11 11 88 -10 123 -11 17 -21 32 -23 32 -2 0 -16
-13 -32 -30z"/>
<path d="M1305 2120 c-32 -32 -56 -63 -52 -67 4 -3 20 5 35 19 15 14 33 23 41
21 8 -4 12 0 9 8 -3 8 3 24 14 36 11 12 19 26 16 33 -2 6 -30 -17 -63 -50z"/>
<path d="M3829 2144 l-34 -35 29 7 c28 7 29 6 24 -25 -3 -20 -1 -30 6 -28 6 2
12 16 14 30 3 21 9 27 28 27 13 0 24 5 24 11 0 5 -8 9 -17 8 -37 -3 -44 1 -38
21 9 27 4 25 -36 -16z"/>
<path d="M5127 2152 c-33 -34 -34 -42 -6 -35 19 5 21 3 15 -20 -9 -37 7 -34
21 3 6 17 18 30 27 30 9 0 16 4 16 10 0 5 -7 7 -15 4 -22 -9 -38 5 -24 22 21
26 -7 14 -34 -14z"/>
<path d="M560 2161 c0 -5 7 -14 15 -21 8 -7 15 -28 15 -47 0 -20 4 -32 10 -28
6 3 10 17 10 31 0 19 5 24 25 24 14 0 25 5 25 10 0 6 -10 10 -22 10 -13 0 -32
7 -42 15 -22 17 -36 19 -36 6z"/>
<path d="M1962 2117 c-55 -55 -75 -103 -23 -53 l29 28 21 -21 c11 -11 23 -16
26 -12 2 5 -2 14 -10 21 -20 17 -19 33 5 55 20 19 26 35 12 35 -4 0 -31 -24
-60 -53z"/>
<path d="M6465 2140 c-27 -28 -30 -29 -53 -14 -34 23 -36 12 -3 -20 l28 -27
32 36 c26 31 39 55 28 55 -2 0 -16 -13 -32 -30z"/>
<path d="M7058 2159 c-27 -15 -22 -31 25 -77 l43 -42 24 25 c27 28 20 47 -8
22 -17 -16 -20 -15 -47 13 -25 26 -28 33 -17 50 13 22 6 25 -20 9z"/>
<path d="M2502 2148 c-18 -18 -14 -30 8 -23 17 5 24 -1 41 -39 23 -52 44 -63
27 -13 -12 36 -45 87 -57 87 -4 0 -12 -5 -19 -12z"/>
<path d="M5215 2120 c-21 -22 -36 -42 -34 -45 3 -3 18 9 34 25 16 17 33 30 39
30 5 0 -5 -15 -23 -34 -21 -22 -31 -41 -28 -50 9 -24 19 -20 67 29 24 25 40
45 34 45 -6 0 -23 -13 -39 -30 -16 -16 -33 -30 -39 -30 -5 0 7 17 27 38 29 30
34 41 25 50 -17 17 -20 16 -63 -28z"/>
<path d="M6510 2115 l-44 -45 25 -25 25 -26 42 39 c23 21 42 43 42 49 0 5 -10
19 -23 31 l-23 22 -44 -45z m59 2 c8 -10 4 -20 -18 -41 -45 -43 -72 -14 -29
31 25 27 31 28 47 10z"/>
<path d="M4535 2130 c-14 -15 -21 -17 -32 -9 -17 15 -29 4 -15 -14 9 -10 9
-16 0 -25 -13 -13 -5 -27 11 -18 17 11 73 86 63 86 -5 0 -17 -9 -27 -20z"/>
<path d="M3308 2103 c-29 -29 -40 -34 -51 -25 -8 7 -17 9 -20 6 -8 -8 15 -44
28 -44 12 0 95 82 95 93 0 15 -17 6 -52 -30z"/>
<path d="M4569 2111 c-31 -32 -38 -68 -14 -77 32 -13 102 57 89 90 -10 25 -42
19 -75 -13z m61 0 c0 -16 -41 -61 -56 -61 -19 0 -18 29 3 52 16 18 53 25 53 9z"/>
<path d="M3970 2095 c-27 -28 -39 -33 -59 -28 -26 6 -26 6 -7 -16 11 -11 21
-21 23 -21 7 0 83 83 83 92 0 13 -4 10 -40 -27z"/>
<path d="M717 2088 c-24 -27 -31 -30 -47 -20 -26 16 -40 -6 -15 -25 26 -18 26
-18 75 32 25 25 38 45 30 45 -8 -1 -28 -15 -43 -32z"/>
<path d="M1360 2085 c-23 -24 -40 -33 -52 -29 -22 7 -24 -9 -3 -26 14 -11 23
-7 60 30 25 24 45 48 45 52 0 16 -17 7 -50 -27z"/>
<path d="M3172 1970 c-18 -11 -35 -27 -38 -35 -5 -13 -43 -15 -253 -15 l-246
0 0 -40 0 -40 243 0 243 0 22 -25 c43 -49 131 -49 163 0 l16 25 249 0 249 0
-6 24 c-3 13 -1 32 4 43 10 17 0 18 -240 15 -246 -3 -251 -2 -266 19 -14 21
-69 49 -94 49 -7 0 -28 -9 -46 -20z m92 -41 c35 -28 35 -70 0 -98 -15 -12 -32
-21 -39 -21 -27 0 -65 41 -65 70 0 29 38 70 65 70 7 0 24 -9 39 -21z"/>
<path d="M5785 1980 c-11 -4 -31 -20 -44 -34 l-24 -26 -247 0 c-183 0 -250 3
-260 13 -7 6 -4 -1 8 -16 16 -22 19 -34 12 -53 l-10 -24 249 0 249 0 30 -30
c25 -24 39 -30 75 -30 37 0 50 5 74 30 l28 30 245 0 c183 0 250 -3 260 -12 8
-7 7 -4 -3 8 -9 11 -17 31 -17 44 0 13 8 33 17 44 10 12 11 15 3 9 -10 -10
-78 -13 -262 -13 -231 0 -248 1 -257 19 -11 19 -69 51 -93 50 -7 0 -22 -4 -33
-9z m80 -55 c32 -31 32 -59 -1 -91 -27 -28 -64 -27 -93 1 -23 22 -18 75 8 97
31 25 57 23 86 -7z"/>
<path d="M618 1943 c7 -3 16 -2 19 1 4 3 -2 6 -13 5 -11 0 -14 -3 -6 -6z"/>
<path d="M1268 1943 c7 -3 16 -2 19 1 4 3 -2 6 -13 5 -11 0 -14 -3 -6 -6z"/>
<path d="M1918 1943 c7 -3 16 -2 19 1 4 3 -2 6 -13 5 -11 0 -14 -3 -6 -6z"/>
<path d="M2568 1943 c7 -3 16 -2 19 1 4 3 -2 6 -13 5 -11 0 -14 -3 -6 -6z"/>
<path d="M3868 1943 c7 -3 16 -2 19 1 4 3 -2 6 -13 5 -11 0 -14 -3 -6 -6z"/>
<path d="M4518 1943 c7 -3 16 -2 19 1 4 3 -2 6 -13 5 -11 0 -14 -3 -6 -6z"/>
<path d="M5158 1943 c6 -2 18 -2 25 0 6 3 1 5 -13 5 -14 0 -19 -2 -12 -5z"/>
<path d="M6458 1943 c6 -2 18 -2 25 0 6 3 1 5 -13 5 -14 0 -19 -2 -12 -5z"/>
<path d="M1234 1930 c-7 -7 -107 -10 -286 -8 -266 3 -276 2 -266 -15 5 -11 7
-30 4 -43 l-6 -24 270 0 270 0 -5 23 c-4 15 1 32 15 50 21 27 23 36 4 17z"/>
<path d="M4475 1930 c-4 -6 -109 -10 -281 -10 -272 0 -275 0 -264 -20 8 -14 8
-26 0 -40 -11 -20 -8 -20 265 -20 l275 0 -6 25 c-4 16 0 34 10 50 9 14 14 25
12 25 -3 0 -8 -4 -11 -10z"/>
<path d="M4570 1913 c21 -29 22 -34 8 -55 l-15 -23 282 0 281 0 -10 26 c-7 21
-6 33 8 55 10 16 13 23 5 17 -10 -10 -81 -13 -284 -13 -203 0 -274 3 -284 13
-8 6 -4 -2 9 -20z"/>
<path d="M1332 1907 c5 -11 7 -30 4 -43 l-6 -24 275 0 c273 0 276 0 265 20 -8
14 -8 26 0 40 10 19 5 19 -269 22 -268 3 -279 2 -269 -15z"/>
<path d="M1982 1907 c5 -11 7 -30 4 -43 l-6 -24 271 0 c271 0 271 0 266 21 -3
12 -2 31 2 43 l9 21 -278 0 c-267 0 -278 -1 -268 -18z"/>
<path d="M318 1852 c-32 -37 -76 -87 -98 -112 l-40 -45 0 -530 0 -530 98 -98
97 -97 151 0 c85 0 155 -4 162 -10 9 -7 9 -7 2 2 -19 22 -12 76 12 92 12 9 17
16 11 16 -6 0 -16 -7 -23 -15 -10 -12 -40 -15 -147 -15 l-135 0 -79 77 -79 76
0 502 0 501 37 45 c20 24 55 63 77 87 l40 42 82 0 81 0 0 40 0 40 -96 0 -96 0
-57 -68z"/>
<path d="M5148 1818 c6 -6 18 -8 28 -6 14 3 12 5 -9 10 -19 3 -25 2 -19 -4z"/>
<path d="M618 1813 c6 -2 18 -2 25 0 6 3 1 5 -13 5 -14 0 -19 -2 -12 -5z"/>
<path d="M1268 1813 c7 -3 16 -2 19 1 4 3 -2 6 -13 5 -11 0 -14 -3 -6 -6z"/>
<path d="M1918 1813 c7 -3 16 -2 19 1 4 3 -2 6 -13 5 -11 0 -14 -3 -6 -6z"/>
<path d="M2568 1813 c7 -3 16 -2 19 1 4 3 -2 6 -13 5 -11 0 -14 -3 -6 -6z"/>
<path d="M3868 1813 c7 -3 16 -2 19 1 4 3 -2 6 -13 5 -11 0 -14 -3 -6 -6z"/>
<path d="M4518 1813 c7 -3 16 -2 19 1 4 3 -2 6 -13 5 -11 0 -14 -3 -6 -6z"/>
<path d="M6458 1813 c6 -2 18 -2 25 0 6 3 1 5 -13 5 -14 0 -19 -2 -12 -5z"/>
<path d="M2560 1372 c0 -14 89 -96 96 -89 4 4 -1 16 -11 27 -10 11 -15 26 -11
35 4 12 1 15 -13 10 -10 -3 -24 1 -31 10 -13 16 -30 20 -30 7z"/>
<path d="M2507 1312 c-34 -36 -35 -53 -2 -22 22 21 29 23 46 11 28 -17 36 -6
14 19 -23 26 -26 25 -58 -8z"/>
<path d="M2590 1275 c-16 -17 -27 -22 -34 -15 -17 17 -22 11 -22 -25 0 -20 3
-34 6 -33 3 2 23 22 45 46 40 45 45 69 5 27z"/>
<path d="M2659 1234 c-27 -28 -39 -34 -59 -29 -24 6 -24 6 -5 -15 l19 -21 45
45 c25 25 43 48 40 50 -3 3 -21 -10 -40 -30z"/>
<path d="M1130 1245 c0 -6 7 -18 15 -28 7 -11 11 -26 8 -34 -4 -11 -2 -14 8
-11 8 3 22 1 32 -4 34 -17 27 -2 -18 42 -25 24 -45 40 -45 35z"/>
<path d="M3726 1242 c-3 -5 1 -15 9 -22 8 -7 15 -21 15 -32 0 -13 5 -18 14
-15 7 3 19 0 25 -6 6 -6 14 -7 18 -3 4 3 -11 25 -34 47 -22 23 -43 37 -47 31z"/>
<path d="M2408 1214 c-38 -20 -65 -72 -46 -90 32 -32 127 57 97 92 -14 17 -17
17 -51 -2z m32 -21 c0 -20 -28 -53 -47 -53 -21 0 -15 37 9 54 29 20 38 20 38
-1z"/>
<path d="M3660 1175 c-13 -14 -19 -25 -13 -25 12 0 48 38 41 45 -2 3 -15 -6
-28 -20z"/>
<path d="M1060 1175 c-20 -24 -6 -28 15 -5 10 11 13 20 8 20 -6 0 -16 -7 -23
-15z"/>
<path d="M2447 1132 c-31 -32 -57 -62 -57 -67 0 -5 5 -4 12 3 17 17 41 15 34
-3 -9 -24 7 -17 48 21 30 29 40 33 52 23 8 -6 17 -9 21 -5 9 8 -28 47 -38 40
-20 -12 -30 8 -13 27 9 10 13 19 8 19 -5 0 -35 -26 -67 -58z m43 -11 c0 -12
-29 -35 -36 -28 -11 10 5 37 21 37 8 0 15 -4 15 -9z"/>
<path d="M3680 1155 c-32 -33 -37 -61 -7 -37 19 16 28 4 20 -26 -4 -18 -2 -23
8 -20 8 3 15 14 17 25 2 13 13 24 28 27 30 8 32 28 2 26 -36 -3 -41 -1 -29 14
26 31 -8 23 -39 -9z"/>
<path d="M1087 1152 c-26 -27 -40 -59 -15 -34 19 19 28 14 28 -18 0 -16 5 -30
10 -30 6 0 10 11 10 25 0 18 7 26 25 31 14 3 25 10 25 16 0 5 -9 7 -20 3 -28
-9 -44 3 -29 21 21 26 -7 14 -34 -14z"/>
<path d="M1181 1118 c-55 -53 -20 -109 36 -56 37 34 47 57 32 74 -17 21 -32
17 -68 -18z m54 1 c8 -12 -33 -59 -52 -59 -20 0 -16 21 9 47 24 25 34 28 43
12z"/>
<path d="M3773 1115 c-39 -39 -40 -68 -4 -73 32 -5 81 43 81 80 0 40 -33 37
-77 -7z m57 -5 c0 -11 -41 -50 -52 -50 -15 0 -8 24 13 47 21 21 39 23 39 3z"/>
<path d="M990 1111 c0 -13 121 -131 134 -131 6 0 -21 32 -59 70 -73 74 -75 75
-75 61z"/>
<path d="M2346 1058 c61 -66 84 -85 84 -71 0 11 -123 133 -134 133 -5 0 17
-28 50 -62z"/>
<path d="M2940 1113 c0 -6 7 -16 16 -24 8 -7 13 -21 10 -32 -3 -14 -1 -17 11
-13 9 4 24 -1 35 -10 28 -26 33 -10 5 17 -56 55 -77 72 -77 62z"/>
<path d="M3546 1061 c-61 -62 -53 -82 8 -22 l43 42 17 -25 c16 -26 16 -27 -24
-70 -46 -49 -52 -67 -14 -37 33 26 50 26 66 1 12 -19 38 -28 38 -13 0 4 -12
20 -27 36 l-28 29 28 23 c30 27 35 40 12 31 -10 -3 -26 6 -43 25 l-27 30 -49
-50z"/>
<path d="M2270 1082 c0 -5 9 -17 21 -28 12 -11 18 -26 15 -37 -3 -14 0 -17 11
-12 10 3 27 -5 45 -21 15 -15 31 -24 35 -21 4 4 -20 34 -52 67 -57 58 -75 70
-75 52z"/>
<path d="M2870 1045 c-20 -24 -6 -28 15 -5 10 11 13 20 8 20 -6 0 -16 -7 -23
-15z"/>
<path d="M2222 1038 c-14 -14 -16 -28 -2 -28 5 0 14 9 20 20 12 22 1 27 -18 8z"/>
<path d="M2897 1025 c-15 -14 -27 -31 -27 -37 0 -9 3 -9 12 0 20 20 28 14 28
-23 0 -19 5 -35 10 -35 6 0 10 13 10 29 0 24 5 29 31 35 17 3 28 10 24 15 -3
6 -12 8 -20 4 -8 -3 -22 -2 -31 1 -13 5 -14 9 -4 21 20 25 -3 17 -33 -10z"/>
<path d="M930 1034 c0 -3 11 -19 25 -36 14 -17 25 -42 25 -59 0 -16 5 -29 10
-29 6 0 10 14 10 30 0 27 3 30 30 30 17 0 30 5 30 10 0 6 -13 10 -29 10 -17 0
-42 11 -59 25 -30 25 -42 30 -42 19z"/>
<path d="M2247 1012 c-33 -34 -34 -46 -6 -37 24 8 39 -8 39 -42 0 -13 5 -23
10 -23 6 0 10 11 10 25 0 20 5 25 26 25 14 0 23 4 19 10 -3 6 -17 10 -30 10
-27 0 -41 16 -37 43 4 23 0 22 -31 -11z"/>
<path d="M3030 965 c-26 -27 -37 -32 -47 -23 -21 17 -29 0 -10 -19 16 -17 20
-15 64 30 26 26 43 47 37 47 -5 0 -25 -16 -44 -35z"/>
<path d="M3450 949 c0 -22 4 -30 14 -26 9 4 14 -2 14 -19 0 -29 -19 -27 -33 4
-5 12 -15 22 -21 22 -15 0 -64 -53 -64 -70 0 -7 3 -10 6 -7 12 11 44 -13 44
-33 0 -11 4 -20 8 -20 15 0 72 66 72 84 0 12 5 16 16 12 35 -13 34 8 -2 45
-21 22 -42 39 -46 39 -4 0 -8 -14 -8 -31z m-10 -74 c19 -23 1 -39 -21 -19 -10
9 -19 21 -19 26 0 13 27 9 40 -7z"/>
<path d="M868 947 c18 -19 19 -26 9 -37 -10 -10 -9 -12 7 -6 12 4 26 0 38 -10
36 -34 31 -3 -7 36 -42 43 -86 59 -47 17z"/>
<path d="M2150 961 c0 -15 80 -94 87 -87 4 3 -1 14 -11 24 -10 12 -14 26 -10
37 6 14 4 17 -8 12 -9 -3 -25 1 -37 9 -12 9 -21 11 -21 5z"/>
<path d="M1455 920 l-39 -40 22 -22 c20 -20 22 -21 40 -5 30 27 35 6 6 -24
-14 -15 -22 -29 -17 -32 12 -8 129 110 120 119 -4 4 -18 -3 -32 -16 -28 -27
-47 -20 -22 8 33 36 3 32 -35 -5 -46 -45 -64 -36 -20 10 18 18 32 36 32 40 0
16 -18 5 -55 -33z"/>
<path d="M2762 917 c-43 -44 -52 -60 -29 -51 17 6 51 -31 42 -45 -10 -16 16
-13 35 4 15 14 18 14 30 0 11 -13 9 -20 -10 -40 -13 -14 -21 -28 -17 -31 7 -7
117 105 117 120 0 5 -12 -2 -27 -16 -28 -26 -53 -27 -53 -3 0 7 7 18 15 25 21
18 19 33 -4 25 -20 -6 -55 30 -45 47 14 23 -17 3 -54 -35z m62 -19 c8 -14 7
-22 -7 -35 -16 -16 -18 -16 -39 4 -18 19 -19 24 -8 38 16 19 39 16 54 -7z"/>
<path d="M785 900 c-10 -11 -14 -20 -8 -20 5 0 18 9 28 20 10 11 14 20 8 20
-5 0 -18 -9 -28 -20z"/>
<path d="M807 882 c-28 -30 -37 -53 -12 -32 21 18 38 2 31 -31 -3 -17 -1 -29
5 -29 5 0 12 14 16 30 4 20 11 30 24 30 10 0 21 5 24 10 4 6 -7 10 -26 10 -26
0 -31 3 -26 20 7 28 -4 25 -36 -8z"/>
<path d="M2094 878 c9 -12 16 -35 16 -50 0 -16 5 -28 10 -28 6 0 10 11 10 24
0 19 7 26 30 31 37 8 30 25 -10 25 -16 0 -32 5 -35 10 -3 6 -13 10 -21 10 -13
0 -13 -3 0 -22z"/>
<path d="M3506 859 c-47 -37 -55 -89 -14 -89 30 0 56 18 73 50 29 56 -8 79
-59 39z m44 -21 c0 -16 -31 -48 -47 -48 -18 0 -16 20 4 42 18 20 43 24 43 6z"/>
<path d="M1543 835 c-38 -38 -41 -68 -7 -73 29 -4 84 49 84 82 0 38 -34 34
-77 -9z m57 2 c0 -8 -11 -24 -25 -37 -36 -34 -59 -11 -25 25 25 27 50 33 50
12z"/>
<path d="M940 825 c-26 -27 -37 -32 -47 -23 -22 18 -28 0 -8 -22 19 -21 19
-20 62 22 24 23 43 46 43 50 0 16 -17 7 -50 -27z"/>
<path d="M2235 820 c-22 -23 -34 -28 -54 -24 l-26 6 23 -23 22 -24 47 48 c29
29 42 47 32 47 -8 0 -28 -13 -44 -30z"/>
<path d="M710 815 c0 -25 -48 -75 -66 -68 -23 9 -16 -11 14 -40 l28 -27 44 45
44 45 -32 32 c-27 28 -32 30 -32 13z m30 -43 c0 -17 -58 -64 -64 -53 -4 6 5
22 20 36 27 25 44 32 44 17z"/>
<path d="M1360 822 c0 -4 18 -26 40 -47 28 -27 40 -34 40 -23 0 9 -4 20 -10
23 -5 3 -10 15 -10 25 0 13 -5 17 -14 14 -8 -3 -17 -1 -21 5 -7 13 -25 15 -25
3z"/>
<path d="M2010 823 c0 -11 63 -73 75 -73 4 0 1 8 -9 19 -9 10 -14 25 -10 35 5
12 2 15 -10 10 -9 -3 -23 -1 -31 6 -8 7 -15 8 -15 3z"/>
<path d="M2625 780 c-27 -27 -45 -50 -39 -50 6 0 25 16 44 35 38 40 45 42 54
18 5 -11 -6 -30 -34 -58 -45 -46 -55 -73 -11 -31 33 31 55 18 25 -15 -28 -31
0 -22 31 11 16 17 33 30 39 30 5 0 -4 -15 -22 -33 -35 -36 -39 -49 -19 -65 10
-9 25 0 62 38 27 28 45 50 39 50 -6 0 -25 -16 -44 -35 -19 -19 -38 -35 -44
-35 -6 0 8 18 29 40 37 38 38 41 22 57 -15 16 -18 16 -35 0 -10 -9 -22 -17
-25 -17 -14 0 -6 28 13 45 21 19 28 41 9 29 -7 -4 -19 3 -28 15 l-16 21 -50
-50z"/>
<path d="M3309 830 c-7 -48 -32 -80 -61 -80 -26 0 -22 -22 7 -50 l26 -24 47
47 47 47 -33 32 c-17 18 -32 30 -33 28z m31 -58 c0 -15 -48 -54 -62 -50 -8 3
-3 13 16 31 29 27 46 34 46 19z"/>
<path d="M750 705 c-36 -36 -60 -65 -54 -65 6 0 19 9 29 20 22 24 33 25 57 3
26 -23 32 -11 8 17 l-20 24 27 28 c14 15 24 30 22 33 -3 2 -34 -25 -69 -60z"/>
<path d="M3340 705 c-35 -36 -58 -65 -50 -65 7 0 24 10 37 22 21 20 24 20 41
5 10 -10 22 -17 25 -17 14 0 7 23 -10 36 -17 12 -16 14 10 41 15 16 27 32 27
36 0 17 -20 3 -80 -58z"/>
<path d="M1300 751 c0 -6 5 -13 10 -16 6 -3 10 -22 10 -41 0 -19 5 -34 10 -34
6 0 10 14 10 30 0 27 3 30 30 30 17 0 30 5 30 10 0 6 -15 10 -34 10 -19 0 -38
5 -41 10 -8 13 -25 13 -25 1z"/>
<path d="M1955 743 c5 -10 10 -33 13 -50 5 -41 22 -43 22 -3 0 25 4 30 25 30
14 0 25 5 25 10 0 6 -13 10 -29 10 -17 0 -33 5 -36 10 -11 18 -28 11 -20 -7z"/>
<path d="M1428 723 c-15 -9 -32 -27 -39 -39 -30 -56 32 -75 75 -23 29 34 32
49 14 67 -15 15 -17 15 -50 -5z m39 -18 c7 -20 -24 -55 -49 -55 -24 0 -23 19
4 47 25 27 36 29 45 8z"/>
<path d="M2055 700 l-39 -40 22 -22 22 -23 42 42 c41 41 42 43 23 63 -10 11
-21 20 -25 20 -3 0 -24 -18 -45 -40z m61 9 c3 -6 -7 -25 -24 -42 -27 -27 -32
-29 -38 -13 -4 11 2 26 16 42 26 27 35 29 46 13z"/>
<path d="M4119 618 c-20 -11 -49 -40 -64 -64 l-28 -44 -290 0 -290 0 -38 35
c-55 49 -104 49 -153 0 l-35 -35 -231 0 c-146 0 -239 4 -251 11 -20 10 -20 10
-3 -16 13 -20 14 -31 7 -48 l-10 -22 248 3 248 3 16 -24 c19 -29 56 -47 96
-47 22 0 41 10 66 35 l35 35 299 0 c241 0 299 -3 299 -13 0 -7 16 -32 36 -55
99 -116 284 -49 284 102 0 60 -20 99 -72 136 -51 37 -114 40 -169 8z m141 -52
c0 -8 -11 -36 -24 -63 -13 -26 -27 -63 -31 -80 -5 -24 -12 -33 -26 -33 -26 0
-26 52 0 102 l18 37 -31 3 c-23 2 -32 8 -34 26 -3 21 0 22 62 22 50 0 66 -3
66 -14z m-880 -46 c26 -26 25 -58 -2 -87 -40 -43 -108 -18 -108 39 0 62 67 91
110 48z"/>
<path d="M778 519 c23 -26 29 -58 12 -74 -6 -7 91 -9 262 -7 206 2 274 0 287
-10 13 -10 13 -9 -1 8 -24 28 -22 50 7 79 27 27 21 33 -9 10 -16 -12 -66 -15
-276 -15 -222 0 -259 2 -280 17 l-25 16 23 -24z"/>
<path d="M1419 524 c18 -13 22 -24 19 -53 l-3 -36 271 3 c233 2 273 0 284 -13
7 -8 17 -15 23 -15 5 0 -2 9 -17 21 -15 12 -26 30 -26 44 0 14 11 32 26 44 30
24 20 29 -10 6 -29 -22 -523 -22 -552 0 -10 8 -23 15 -29 15 -5 0 1 -7 14 -16z"/>
<path d="M2636 525 c-16 -12 -66 -15 -274 -15 -161 0 -261 4 -273 11 -20 10
-20 10 -4 -14 11 -18 13 -31 6 -48 l-9 -24 273 3 c234 2 274 0 285 -13 7 -8
17 -15 23 -15 5 0 -2 9 -17 21 -34 26 -34 62 0 88 30 24 20 29 -10 6z"/>
</g>
</svg>
